<?xml version="1.0" standalone="no"?>
<!DOCTYPE svg PUBLIC "-//W3C//DTD SVG 20010904//EN"
 "http://www.w3.org/TR/2001/REC-SVG-20010904/DTD/svg10.dtd">
<svg version="1.0" xmlns="http://www.w3.org/2000/svg"
 width="281.000000pt" height="280.000000pt" viewBox="0 0 281.000000 280.000000"
 preserveAspectRatio="xMidYMid meet">

<g transform="translate(0.000000,280.000000) scale(0.100000,-0.100000)"
fill="#000000" stroke="none">
<path d="M432 2250 c-24 -10 -49 -57 -52 -100 -6 -72 8 -80 139 -80 l107 0 11
30 c6 17 19 30 28 30 13 0 15 -6 10 -30 l-7 -30 71 0 c67 0 72 2 81 25 7 18
17 25 35 25 20 0 25 -5 25 -25 0 -24 2 -25 70 -25 55 0 71 4 79 18 10 15 11
15 17 -5 8 -27 12 -28 36 -6 11 9 18 11 18 5 0 -8 25 -12 75 -12 68 0 75 2 75
20 0 17 7 20 46 20 25 0 55 5 66 11 20 11 21 9 15 -20 -6 -28 -4 -31 19 -31
21 0 24 -3 15 -13 -6 -8 -8 -17 -5 -20 4 -3 17 7 31 23 21 25 27 28 48 18 23
-10 23 -12 9 -39 -20 -39 -3 -38 49 4 l41 32 -47 -67 c-61 -86 -75 -124 -53
-146 14 -15 19 -14 53 2 44 21 93 58 191 144 l72 64 194 -1 194 -1 6 25 c6 23
11 25 65 25 52 0 62 3 80 26 26 33 27 76 3 97 -16 15 -46 17 -216 17 -117 0
-205 -4 -217 -10 -13 -7 -19 -7 -19 0 0 5 -16 10 -35 10 -25 0 -37 -5 -41 -17
-3 -10 -8 -24 -10 -32 -3 -10 -11 -5 -24 17 -15 25 -27 32 -50 32 -18 0 -33
-6 -37 -15 -5 -14 -7 -14 -22 -1 -21 19 -261 22 -261 3 0 -8 -4 -7 -12 1 -8 8
-53 12 -134 12 l-123 0 -21 -30 c-12 -16 -25 -30 -29 -30 -5 0 -14 14 -21 30
-10 25 -18 30 -45 30 -19 0 -35 -5 -37 -11 -3 -9 -9 -9 -25 0 -27 14 -128 15
-154 1 -13 -7 -19 -7 -19 0 0 5 -18 10 -39 10 -36 0 -40 -3 -46 -30 -4 -20
-13 -30 -26 -30 -15 0 -17 5 -12 30 l6 30 -109 -1 c-60 0 -119 -4 -132 -9z
m141 -16 c3 -3 3 -12 0 -20 -4 -10 -23 -14 -63 -14 -63 0 -64 -1 -74 -42 l-6
-28 61 0 c52 0 60 -2 57 -17 -2 -14 -15 -19 -61 -21 -35 -2 -64 2 -73 9 -28
23 -8 109 29 127 24 11 120 16 130 6z m65 -24 c-4 -29 -4 -30 37 -30 39 0 43
2 49 30 3 18 12 30 21 30 19 0 19 -6 -1 -85 -11 -44 -21 -65 -31 -65 -12 0
-14 7 -9 30 5 30 5 30 -38 30 -40 0 -44 -2 -49 -30 -4 -19 -13 -30 -23 -30
-12 0 -15 6 -10 23 3 12 10 46 16 75 8 35 17 52 27 52 11 0 14 -8 11 -30z
m306 24 c19 -7 20 -38 5 -100 -12 -48 -39 -61 -39 -19 0 23 -4 25 -40 25 -28
0 -40 4 -40 14 0 11 14 16 47 18 69 4 69 28 0 28 l-55 0 -12 -50 c-12 -48 -25
-68 -37 -56 -13 13 19 116 40 131 21 15 101 20 131 9z m113 -34 c9 -22 19 -40
22 -40 4 0 25 18 46 40 49 50 69 53 59 8 -15 -73 -30 -112 -43 -116 -11 -4
-13 4 -7 39 l7 44 -39 -38 -38 -37 -19 37 -18 38 -9 -35 c-11 -41 -22 -55 -36
-46 -9 5 4 76 23 134 9 26 37 11 52 -28z m317 34 c21 -8 20 -52 -1 -76 -12
-14 -31 -18 -80 -18 -57 0 -63 -2 -63 -20 0 -19 -25 -39 -35 -28 -4 3 17 98
30 136 5 13 119 18 149 6z m96 0 c0 -18 -33 -130 -41 -138 -18 -19 -21 5 -9
66 6 35 14 66 17 71 5 8 33 10 33 1z m181 -4 c22 -12 23 -29 8 -83 -7 -26 -15
-37 -24 -33 -7 2 -21 -2 -32 -9 -23 -18 -63 -19 -64 -2 0 10 -2 10 -6 0 -6
-17 -28 -16 -42 1 -17 21 -3 85 25 113 17 17 34 23 69 23 26 0 55 -5 66 -10z
m124 -35 c29 -51 40 -51 49 0 7 34 22 53 33 41 5 -5 -15 -122 -24 -139 -7 -11
-57 28 -73 57 -19 36 -27 33 -35 -15 -6 -35 -27 -60 -40 -47 -4 3 17 98 30
136 9 25 34 11 60 -33z m283 28 c-3 -15 -16 -19 -71 -21 -82 -4 -90 -22 -8
-22 44 0 60 -4 65 -16 9 -25 7 -33 -14 -54 -16 -16 -33 -20 -85 -20 -58 0 -65
2 -65 20 0 18 7 20 65 20 80 0 86 18 8 22 -51 3 -58 6 -61 25 -6 41 30 63 104
63 57 0 65 -2 62 -17z m74 12 c3 -3 -2 -36 -11 -73 -12 -48 -22 -68 -35 -70
-13 -3 -17 1 -12 15 3 10 10 40 16 67 14 64 24 79 42 61z m202 -18 c8 -13 7
-24 -4 -45 -14 -25 -22 -27 -82 -30 -61 -3 -67 -5 -72 -27 -4 -14 -14 -25 -22
-25 -12 0 -15 6 -10 23 3 12 10 46 17 75 l11 53 75 -3 c59 -2 78 -7 87 -21z
m-1764 -52 c0 -12 -13 -15 -55 -15 -42 0 -55 3 -55 15 0 12 13 15 55 15 42 0
55 -3 55 -15z m1210 -84 c0 -9 -157 -142 -212 -179 -47 -32 -78 -41 -78 -22 0
35 113 205 130 195 5 -3 11 -1 15 5 3 5 11 10 16 10 6 0 7 -5 4 -11 -5 -7 8
-9 37 -7 40 3 43 5 46 33 l4 30 19 -24 c10 -13 19 -26 19 -30z m-230 -16 c0
-2 -10 -10 -22 -16 -21 -11 -22 -11 -9 4 13 16 31 23 31 12z"/>
<path d="M1250 2184 c0 -12 10 -14 52 -12 74 4 77 28 4 28 -44 0 -56 -3 -56
-16z"/>
<path d="M1524 2170 c-4 -16 -6 -33 -4 -37 1 -4 -7 -10 -17 -14 -16 -7 -16 -8
-1 -8 9 -1 20 4 23 9 3 6 26 10 50 10 47 0 49 1 59 43 6 27 6 27 -49 27 -54 0
-56 -1 -61 -30z m86 -5 c0 -10 -10 -15 -30 -15 -20 0 -30 5 -30 15 0 10 10 15
30 15 20 0 30 -5 30 -15z"/>
<path d="M2197 2193 c-17 -16 -3 -23 47 -23 39 0 55 4 60 15 4 12 -5 15 -48
15 -29 0 -56 -3 -59 -7z"/>
<path d="M1723 1955 l-28 -24 50 1 c30 1 63 9 84 21 l33 20 -7 -21 c-3 -12 -2
-22 3 -22 10 0 22 23 22 41 0 11 -67 4 -83 -9 -7 -5 -25 -12 -42 -16 -29 -7
-29 -7 -11 13 26 29 13 26 -21 -4z"/>
<path d="M1935 1960 c-14 -8 -25 -18 -25 -22 0 -13 25 -9 46 7 25 19 45 19 38
0 -4 -8 -2 -15 4 -15 10 0 22 23 22 40 0 14 -58 7 -85 -10z"/>
<path d="M2086 1964 c-25 -14 -27 -17 -13 -31 12 -12 24 -14 54 -8 21 5 43 7
50 6 6 -1 26 7 44 18 30 19 33 19 46 3 13 -16 14 -15 11 3 -4 23 -53 29 -78 9
-15 -12 -84 -34 -107 -34 -7 0 -13 5 -13 11 0 5 4 8 8 5 14 -8 83 14 77 25 -9
14 -46 10 -79 -7z"/>
<path d="M950 1770 c-6 -11 -10 -102 -10 -220 l0 -201 -42 3 -43 3 -5 63 c-7
93 -21 101 -177 102 -71 0 -124 -4 -128 -10 -4 -6 15 -10 49 -10 61 0 66 -4
55 -40 l-7 -25 -1 26 c-1 35 -31 34 -49 -1 l-13 -25 6 28 c3 15 2 27 -3 27 -4
0 -13 -12 -19 -27 l-12 -28 6 28 c3 15 1 27 -4 27 -5 0 -14 -12 -20 -27 l-12
-28 6 28 c6 33 -4 36 -18 5 l-10 -23 5 23 c6 31 -10 28 -23 -5 l-11 -28 6 30
5 30 -21 -21 c-46 -45 -56 -379 -15 -486 6 -16 0 -18 -50 -18 -31 0 -55 -4
-53 -9 7 -19 2088 -20 2088 -1 0 6 -29 10 -68 10 -38 0 -71 2 -74 5 -3 3 1 31
9 63 10 43 12 97 7 225 -6 157 -8 171 -30 196 -25 30 -54 37 -55 12 0 -12 -3
-11 -9 4 -7 17 -9 16 -10 -10 -2 -22 -4 -24 -7 -10 -8 35 -26 44 -20 10 l6
-30 -12 26 c-7 14 -18 24 -24 22 -7 -3 -13 0 -13 6 0 6 14 11 31 11 17 0 28 4
24 10 -4 6 -57 10 -128 10 -154 -1 -169 -10 -177 -104 -5 -60 -5 -61 -37 -64
-32 -3 -33 -2 -34 35 -1 21 -4 119 -8 218 l-6 180 -417 2 c-402 2 -418 2 -428
-17z m380 -5 c-7 -9 -15 -13 -17 -11 -7 7 7 26 19 26 6 0 6 -6 -2 -15z m-30
-5 c0 -6 -7 -26 -14 -45 l-15 -35 -149 0 c-82 0 -151 2 -153 4 -3 3 -3 23 -1
45 l4 41 164 0 c106 0 164 -4 164 -10z m480 -30 l0 -40 -130 0 c-129 0 -130 0
-158 28 -15 15 -19 18 -9 6 10 -12 17 -30 16 -40 -2 -11 -1 -24 3 -30 5 -7
-12 -9 -51 -6 l-57 4 -11 -38 -11 -39 1 40 c2 38 0 40 -28 41 -17 0 -29 6 -27
12 1 7 -2 12 -7 12 -6 0 -9 -9 -8 -19 0 -11 5 -17 9 -15 4 3 8 -5 8 -18 0 -13
5 -29 12 -36 9 -9 6 -12 -14 -12 -28 0 -38 16 -38 62 0 78 59 127 136 115 20
-4 32 -2 29 4 -4 5 60 9 164 9 l171 0 0 -40z m-525 -100 c-4 -6 -65 -10 -151
-10 -89 0 -144 4 -144 10 0 6 57 10 151 10 97 0 148 -4 144 -10z m535 0 c0 -6
-52 -10 -135 -10 -83 0 -135 4 -135 10 0 6 52 10 135 10 83 0 135 -4 135 -10z
m-510 -47 c0 -7 -6 -13 -14 -13 -9 0 -12 8 -8 26 3 19 7 22 13 12 5 -7 9 -19
9 -25z m-35 -23 c19 -7 19 -8 1 -15 -11 -5 -21 -3 -26 5 -7 11 -13 10 -34 -3
-18 -12 -27 -29 -31 -62 -8 -49 -18 -56 -35 -25 -9 16 -8 20 5 20 10 0 15 9
15 28 0 15 -3 22 -8 15 -11 -18 -65 -20 -80 -3 -11 13 -12 11 -10 -10 2 -16
10 -26 23 -28 11 -2 30 -15 41 -29 19 -22 20 -30 11 -64 l-9 -39 -74 0 -74 0
0 110 0 110 133 -1 c72 0 141 -4 152 -9z m545 -101 l0 -110 -77 3 -77 3 -9 38
c-8 32 -6 43 10 65 11 15 30 28 42 30 14 2 21 11 21 25 0 16 -3 18 -12 9 -7
-7 -24 -12 -38 -12 -14 0 -31 5 -38 12 -9 9 -12 7 -12 -10 0 -13 6 -22 15 -22
18 0 18 -5 4 -31 -14 -26 -29 -15 -29 22 0 18 -9 39 -25 54 -32 33 -42 31 -37
-4 6 -42 -11 -45 -61 -11 -50 34 -98 39 -143 15 -33 -17 -39 -14 -25 13 9 18
24 19 250 20 l241 2 0 -111z m-993 14 c-3 -10 -5 -4 -5 12 0 17 2 24 5 18 2
-7 2 -21 0 -30z m1140 0 c-3 -10 -5 -4 -5 12 0 17 2 24 5 18 2 -7 2 -21 0 -30z
m-1260 -5 c-3 -8 -6 -5 -6 6 -1 11 2 17 5 13 3 -3 4 -12 1 -19z m520 16 c-3
-3 -12 -4 -19 -1 -8 3 -5 6 6 6 11 1 17 -2 13 -5z m367 -2 c3 -5 -8 -21 -24
-37 -15 -15 -26 -34 -23 -41 6 -17 -16 -143 -29 -164 -7 -12 -8 -10 -4 5 3 11
8 43 11 70 3 28 8 60 11 72 4 21 3 21 -52 -7 -31 -17 -65 -30 -76 -30 -12 0
-43 23 -72 53 l-51 52 130 6 c72 4 141 7 155 8 20 1 22 3 10 11 -9 6 -10 10
-3 10 6 0 14 -4 17 -8z m525 -14 c-1 -17 -2 -19 -6 -5 -10 38 -18 13 -16 -50
l1 -68 -8 62 c-5 35 -12 67 -15 73 -4 6 5 10 19 10 21 0 26 -5 25 -22z m31 2
c0 -11 -2 -20 -4 -20 -2 0 -6 9 -9 20 -3 11 -1 20 4 20 5 0 9 -9 9 -20z m127
-22 c-3 -7 -5 -2 -5 12 0 14 2 19 5 13 2 -7 2 -19 0 -25z m-1630 0 c-3 -8 -6
-5 -6 6 -1 11 2 17 5 13 3 -3 4 -12 1 -19z m1530 0 c-3 -8 -6 -5 -6 6 -1 11 2
17 5 13 3 -3 4 -12 1 -19z m-582 -64 c-9 -84 -51 -188 -100 -248 -38 -47 -61
-64 -31 -23 74 101 108 179 122 287 10 74 17 61 9 -16z m-898 -21 c-2 -16 -4
-3 -4 27 0 30 2 43 4 28 2 -16 2 -40 0 -55z m930 -42 c-15 -6 -17 5 -9 60 l7
54 5 -55 c3 -30 1 -57 -3 -59z m-810 22 c-2 -16 -4 -3 -4 27 0 30 2 43 4 28 2
-16 2 -40 0 -55z m1160 5 c-2 -13 -4 -3 -4 22 0 25 2 35 4 23 2 -13 2 -33 0
-45z m-800 20 c-3 -8 -6 -5 -6 6 -1 11 2 17 5 13 3 -3 4 -12 1 -19z m161 -38
c3 -16 11 -20 38 -20 l34 0 0 -55 c0 -52 1 -55 25 -55 14 0 25 -4 25 -10 0 -6
-30 -10 -70 -10 -40 0 -70 4 -70 10 0 6 14 10 30 10 29 0 30 1 30 50 0 42 -3
50 -19 50 -16 0 -18 -6 -13 -45 4 -44 4 -45 -24 -45 -17 0 -39 11 -56 27 -22
21 -28 36 -28 70 0 27 4 42 10 38 6 -3 10 -19 10 -35 0 -16 4 -31 8 -34 5 -3
6 23 4 56 l-5 62 34 -22 c19 -11 35 -30 37 -42z m-148 0 c0 -18 -6 -20 -62
-18 l-63 2 53 3 c34 3 55 9 59 19 7 20 13 18 13 -6z m-220 0 c11 -7 0 -10 -37
-10 -28 0 -55 5 -58 10 -8 13 75 13 95 0z m183 3 c-7 -2 -21 -2 -30 0 -10 3
-4 5 12 5 17 0 24 -2 18 -5z m762 -3 c-3 -5 -27 -10 -53 -9 -35 0 -42 3 -27 9
28 12 88 12 80 0z m-1168 -157 c-2 -32 -3 -8 -3 52 0 61 1 87 3 58 2 -29 2
-78 0 -110z m433 117 c-8 -5 -19 -10 -25 -10 -5 0 -3 5 5 10 8 5 20 10 25 10
6 0 3 -5 -5 -10z m509 -20 c64 -25 83 -29 105 -20 15 5 33 10 39 9 7 0 -19
-11 -57 -25 -38 -13 -72 -22 -74 -19 -3 2 6 9 19 14 24 8 23 9 -11 23 -19 8
-52 20 -72 27 -21 7 -38 14 -38 17 0 7 9 5 89 -26z m-549 6 c0 -2 -26 -13 -59
-25 -53 -19 -61 -20 -97 -7 -44 16 -33 22 12 6 23 -8 40 -6 79 9 50 20 65 24
65 17z m767 -2 c-3 -3 -12 -4 -19 -1 -8 3 -5 6 6 6 11 1 17 -2 13 -5z m-1090
-56 c-2 -13 -4 -5 -4 17 -1 22 1 32 4 23 2 -10 2 -28 0 -40z m168 3 c-13 -12
-206 -83 -212 -78 -3 4 200 85 217 86 2 1 0 -3 -5 -8z m100 -1 c8 -13 -5 -13
-25 0 -13 8 -13 10 2 10 9 0 20 -4 23 -10z m852 -40 c3 0 4 -2 1 -5 -6 -7
-118 33 -133 47 -5 5 20 -2 58 -17 37 -14 70 -25 74 -25z m73 -30 c8 -5 11
-10 5 -10 -5 0 -17 5 -25 10 -8 5 -10 10 -5 10 6 0 17 -5 25 -10z m-72 -152
c7 -7 12 -15 12 -18 0 -3 -250 -6 -555 -6 -305 0 -555 2 -555 6 0 28 34 30
555 30 400 0 534 -3 543 -12z"/>
<path d="M980 1741 c0 -6 4 -13 10 -16 6 -3 7 1 4 9 -7 18 -14 21 -14 7z"/>
<path d="M1125 1740 c-3 -5 -1 -10 4 -10 6 0 11 5 11 10 0 6 -2 10 -4 10 -3 0
-8 -4 -11 -10z"/>
<path d="M1738 1743 c7 -3 16 -2 19 1 4 3 -2 6 -13 5 -11 0 -14 -3 -6 -6z"/>
<path d="M1320 1722 c0 -14 59 -52 65 -43 3 5 -7 19 -21 30 -28 22 -44 27 -44
13z"/>
<path d="M1399 1693 c6 -22 14 -29 40 -31 30 -3 32 -2 29 25 -3 24 -8 28 -40
31 -36 3 -36 2 -29 -25z"/>
<path d="M1290 1299 c0 -5 5 -7 10 -4 6 3 10 8 10 11 0 2 -4 4 -10 4 -5 0 -10
-5 -10 -11z"/>
<path d="M703 95 c0 -27 2 -38 4 -22 2 15 8 27 13 27 5 0 11 -12 13 -27 4 -26
4 -26 6 5 1 22 -4 32 -13 32 -8 0 -17 8 -19 18 -3 9 -5 -5 -4 -33z"/>
<path d="M1202 95 c0 -27 2 -43 5 -35 3 8 13 24 22 35 15 18 15 19 -1 7 -14
-12 -17 -10 -21 15 -2 16 -4 6 -5 -22z"/>
<path d="M820 120 c-4 -25 1 -54 10 -63 4 -5 5 3 3 17 -4 19 -1 26 11 26 9 0
16 -8 16 -19 0 -11 4 -22 9 -25 5 -4 7 3 4 15 -3 12 -1 24 4 28 7 4 6 11 -3
19 -8 7 -14 8 -14 2 0 -14 -27 -13 -33 3 -4 8 -6 8 -7 -3z"/>
<path d="M1048 117 c-7 -19 6 -60 20 -63 7 -1 8 0 2 3 -12 6 -13 40 -1 45 5 2
3 8 -4 15 -10 9 -14 9 -17 0z"/>
<path d="M1585 120 c-3 -5 0 -7 8 -4 24 9 28 -12 7 -31 -27 -25 -25 -35 8 -34
21 0 23 2 9 7 -15 7 -16 10 -3 27 7 10 12 25 9 32 -6 15 -29 17 -38 3z"/>
<path d="M1645 120 c-3 -5 0 -7 8 -4 24 9 28 -12 7 -31 -27 -25 -25 -35 8 -34
21 0 23 2 9 7 -15 7 -16 10 -3 27 7 10 12 25 9 32 -6 15 -29 17 -38 3z"/>
<path d="M1712 105 c-22 -28 -23 -30 -5 -34 10 -2 21 -8 24 -13 10 -15 16 14
10 47 l-6 29 -23 -29z m14 -22 c-10 -10 -19 5 -10 18 6 11 8 11 12 0 2 -7 1
-15 -2 -18z"/>
<path d="M1777 123 c22 -4 22 -6 8 -33 -22 -42 -17 -51 5 -10 25 46 25 50 -7
49 -24 -2 -25 -2 -6 -6z"/>
<path d="M1840 125 c-1 -5 -1 -21 0 -34 1 -13 -4 -28 -12 -32 -9 -6 -3 -9 17
-9 17 0 25 4 18 8 -6 4 -13 23 -16 42 -2 19 -5 31 -7 25z"/>
<path d="M1880 110 c-13 -24 2 -60 25 -60 17 0 28 33 20 60 -3 11 -13 20 -20
20 -8 0 -19 -9 -25 -20z m35 -20 c0 -13 -5 -25 -11 -27 -14 -5 -25 22 -17 42
8 23 28 12 28 -15z"/>
<path d="M1945 120 c-3 -5 0 -7 8 -4 24 9 28 -12 7 -31 -27 -25 -25 -35 8 -34
21 0 23 2 9 7 -15 7 -16 10 -3 27 7 10 12 25 9 32 -6 15 -29 17 -38 3z"/>
<path d="M2007 123 c-12 -12 -7 -33 7 -33 26 0 28 -20 4 -29 -16 -7 -18 -10
-6 -10 9 -1 20 4 23 9 9 14 55 12 55 -2 0 -10 2 -10 8 0 5 7 6 27 4 44 l-5 32
-25 -30 c-16 -18 -27 -24 -30 -16 -2 6 -10 12 -18 12 -20 0 -17 18 4 23 14 4
14 5 1 6 -9 0 -19 -2 -22 -6z m79 -40 c-10 -10 -19 5 -10 18 6 11 8 11 12 0 2
-7 1 -15 -2 -18z"/>
<path d="M2124 115 c-4 -8 -1 -22 6 -30 6 -8 9 -19 5 -25 -3 -5 -4 -10 -1 -10
10 0 33 55 29 68 -6 17 -32 15 -39 -3z m28 -10 c0 -5 -5 -11 -11 -13 -6 -2
-11 4 -11 13 0 9 5 15 11 13 6 -2 11 -8 11 -13z"/>
<path d="M650 93 c0 -10 4 -14 8 -8 4 6 11 13 16 18 5 4 2 7 -7 7 -10 0 -17
-8 -17 -17z"/>
<path d="M761 83 c-1 -27 3 -33 19 -33 16 0 20 6 19 33 -2 30 -2 30 -6 5 -6
-36 -20 -36 -26 0 -4 25 -4 25 -6 -5z"/>
<path d="M907 104 c-13 -13 -7 -24 14 -24 11 0 19 5 17 12 -5 14 -22 21 -31
12z"/>
<path d="M961 78 c2 -28 2 -29 6 -8 3 14 10 28 17 32 7 5 5 8 -6 8 -14 0 -18
-8 -17 -32z"/>
<path d="M1000 93 c0 -10 4 -14 8 -8 4 6 11 13 16 18 5 4 2 7 -7 7 -10 0 -17
-8 -17 -17z"/>
<path d="M1094 95 c-8 -21 2 -45 20 -45 17 0 28 24 20 45 -4 8 -13 15 -20 15
-8 0 -17 -7 -20 -15z m31 -15 c0 -7 -6 -15 -12 -17 -8 -3 -13 4 -13 17 0 13 5
20 13 18 6 -3 12 -11 12 -18z"/>
<path d="M1154 95 c-8 -20 2 -45 18 -44 10 0 10 2 1 6 -7 2 -13 13 -13 23 0
10 6 21 13 23 9 4 9 6 -1 6 -7 1 -15 -6 -18 -14z"/>
<path d="M1294 95 c-8 -20 2 -45 18 -44 10 0 10 2 1 6 -7 2 -13 13 -13 23 0
10 6 21 13 23 9 4 9 6 -1 6 -7 1 -15 -6 -18 -14z"/>
<path d="M1344 95 c-8 -21 2 -45 20 -45 17 0 28 24 20 45 -4 8 -13 15 -20 15
-8 0 -17 -7 -20 -15z m31 -15 c0 -7 -6 -15 -12 -17 -8 -3 -13 4 -13 17 0 13 5
20 13 18 6 -3 12 -11 12 -18z"/>
<path d="M1401 77 c2 -31 2 -31 6 -4 2 15 8 27 13 27 5 0 11 -12 13 -27 l4
-28 2 28 c0 15 5 27 10 27 5 0 12 -12 14 -27 4 -27 4 -27 6 4 1 29 -1 31 -34
31 -33 0 -35 -2 -34 -31z"/>
<path d="M662 65 c-11 -12 -10 -15 3 -15 8 0 15 7 15 15 0 18 -2 18 -18 0z"/>
<path d="M1012 65 c-11 -12 -10 -15 3 -15 8 0 15 7 15 15 0 18 -2 18 -18 0z"/>
<path d="M1220 71 c0 -5 5 -13 10 -16 6 -3 10 -2 10 4 0 5 -4 13 -10 16 -5 3
-10 2 -10 -4z"/>
<path d="M908 58 c5 -5 16 -8 23 -6 8 3 3 7 -10 11 -17 4 -21 3 -13 -5z"/>
</g>
</svg>
