<?xml version="1.0" standalone="no"?>
<!DOCTYPE svg PUBLIC "-//W3C//DTD SVG 20010904//EN"
 "http://www.w3.org/TR/2001/REC-SVG-20010904/DTD/svg10.dtd">
<svg version="1.0" xmlns="http://www.w3.org/2000/svg"
 width="2000.000000pt" height="1500.000000pt" viewBox="0 0 2000.000000 1500.000000"
 preserveAspectRatio="xMidYMid meet">

<g transform="translate(0.000000,1500.000000) scale(0.100000,-0.100000)"
fill="#000000" stroke="none">
<path d="M12602 14195 c-18 -8 -40 -21 -49 -30 -8 -9 -35 -82 -59 -163 -24
-81 -50 -167 -58 -192 -8 -25 -38 -124 -66 -220 -29 -96 -77 -256 -107 -355
-30 -99 -65 -216 -78 -260 -13 -44 -42 -141 -64 -215 -203 -678 -266 -887
-287 -960 -14 -47 -48 -159 -75 -250 -58 -189 -135 -444 -154 -510 -69 -238
-161 -542 -185 -616 -11 -34 -20 -64 -20 -66 0 -3 30 -8 68 -11 37 -4 93 -10
125 -13 l57 -7 -6 31 c-9 46 1 75 34 94 25 15 34 34 66 145 80 274 89 296 121
305 111 30 362 50 488 39 48 -5 90 -11 94 -14 5 -6 -37 -137 -152 -471 -31
-88 -53 -165 -51 -170 2 -6 5 -4 5 5 2 28 105 115 153 128 39 11 46 18 59 53
26 76 46 83 237 83 163 0 168 -1 212 -27 25 -14 53 -36 62 -47 10 -12 22 -21
27 -21 5 0 26 50 47 111 22 61 45 114 52 116 7 3 49 -18 93 -46 44 -28 82 -51
84 -51 2 0 1 16 -2 34 -10 60 6 123 41 170 33 42 34 47 41 167 7 123 20 176
53 213 29 32 93 56 155 56 33 0 56 4 53 9 -5 8 -168 133 -239 183 -17 12 -16
19 24 123 23 61 72 195 110 300 38 104 73 193 77 197 15 15 170 -108 385 -306
78 -72 106 -104 101 -115 -4 -9 -21 -54 -39 -101 -18 -47 -49 -128 -68 -180
-27 -71 -33 -96 -24 -102 22 -15 150 4 187 27 19 12 57 32 83 43 27 12 46 26
42 32 -3 5 -41 10 -84 10 -62 0 -81 4 -94 18 -23 25 -30 105 -13 146 15 36 16
36 125 48 22 3 22 4 -14 41 -24 25 -35 44 -31 55 32 91 222 572 226 571 5 0
145 -160 275 -314 38 -44 73 -84 79 -90 6 -5 31 -36 55 -67 47 -63 47 -62 7
-151 -24 -53 -25 -58 -9 -64 31 -12 42 -37 43 -95 0 -86 -16 -98 -130 -98 -73
0 -90 -3 -90 -15 0 -8 6 -15 14 -15 7 0 49 -18 92 -39 l79 -40 140 -3 140 -3
49 -34 49 -34 55 29 c29 16 56 33 59 37 2 4 -29 45 -69 90 -109 120 -291 335
-307 362 -13 20 -10 32 23 116 21 52 57 139 81 194 23 55 58 137 76 183 18 45
36 82 39 82 4 0 23 -24 43 -52 20 -29 48 -66 63 -83 32 -37 69 -82 131 -161
39 -49 153 -184 173 -204 3 -3 16 -17 29 -32 l23 -27 -53 -123 c-29 -68 -72
-165 -96 -217 -24 -52 -42 -95 -41 -97 6 -5 798 -8 798 -3 0 4 -18 18 -40 33
-22 15 -48 33 -58 40 -224 181 -405 364 -657 666 -44 52 -84 100 -90 107 -5 6
-44 55 -85 108 -41 53 -108 138 -148 189 -40 50 -116 147 -169 216 -252 324
-428 527 -613 705 -145 139 -236 218 -310 268 -41 28 -81 56 -88 63 -51 51
-293 174 -442 225 -189 64 -452 93 -645 71 -49 -6 -92 -9 -93 -7 -2 2 3 28 12
58 21 72 20 105 -4 144 -32 53 -100 74 -158 48z m583 -355 c39 -6 109 -20 157
-32 100 -25 96 -14 50 -143 -13 -38 -60 -173 -103 -300 -44 -126 -83 -233 -87
-236 -4 -4 -45 2 -92 12 -108 25 -378 36 -504 20 -49 -6 -91 -9 -93 -8 -1 2
24 93 58 203 33 109 67 219 74 244 46 158 67 225 71 229 19 19 355 27 469 11z
m966 -477 c87 -76 234 -221 331 -326 86 -94 90 -100 83 -134 -3 -19 -13 -49
-21 -67 -7 -17 -34 -85 -60 -151 -25 -66 -66 -173 -92 -238 l-46 -119 -91 94
c-120 123 -253 248 -332 311 -34 28 -63 55 -63 60 0 10 116 337 211 595 5 12
13 22 18 22 5 0 33 -21 62 -47z m-798 -354 c123 -49 263 -122 363 -190 41 -27
74 -51 74 -54 0 -2 -27 -79 -61 -172 -126 -347 -151 -418 -156 -436 -3 -10 -8
-17 -12 -15 -3 2 -50 29 -103 61 -108 64 -255 132 -363 167 -38 12 -73 24 -77
26 -3 2 30 109 74 236 44 128 94 275 110 326 17 50 35 92 40 92 6 0 56 -18
111 -41z m-483 -640 c36 -7 66 -13 68 -15 5 -3 -211 -641 -221 -650 -3 -3 -54
0 -112 6 -121 15 -349 8 -458 -14 -37 -7 -69 -10 -71 -7 -2 3 7 42 21 86 38
125 59 194 81 270 63 210 93 310 96 312 2 2 43 10 92 18 106 17 404 14 504 -6z
m30 -779 c152 -50 376 -158 387 -187 5 -12 -51 -183 -107 -328 -10 -27 -38
-102 -61 -165 -22 -63 -44 -118 -48 -122 -4 -5 -31 5 -61 20 -134 69 -400 162
-461 162 -11 0 -19 6 -19 13 0 8 39 126 86 263 48 137 96 280 108 317 l21 68
35 -6 c19 -4 73 -19 120 -35z"/>
<path d="M3680 13586 c-254 -37 -520 -139 -751 -288 -81 -52 -220 -162 -227
-180 -9 -21 -20 -2 -32 55 -23 110 -46 137 -116 137 -46 0 -100 -32 -120 -73
-21 -40 -15 -101 25 -277 84 -361 157 -683 220 -970 102 -456 168 -750 196
-870 13 -58 45 -197 70 -310 25 -113 52 -230 59 -260 8 -30 17 -72 21 -92 l6
-38 22 21 c18 17 30 20 66 15 59 -8 141 -47 196 -92 46 -37 121 -143 145 -201
7 -18 15 -33 17 -33 3 0 35 16 73 35 58 31 69 41 78 74 25 83 120 172 199 187
23 4 33 12 33 25 0 31 20 64 51 84 16 11 29 25 29 30 0 9 -55 368 -75 491 l-7
41 98 19 c76 14 148 18 306 19 113 0 209 -2 212 -5 2 -3 26 -156 52 -340 25
-184 49 -338 53 -341 3 -4 45 -10 94 -14 l87 -7 0 36 c0 24 -11 50 -32 82 -31
42 -33 52 -33 123 0 71 3 82 30 117 16 22 32 41 36 44 5 3 11 59 14 125 4 66
11 133 16 149 5 16 7 31 5 33 -1 2 -64 13 -139 25 l-136 22 -5 36 c-3 19 -13
80 -21 135 -34 226 -75 538 -72 542 7 6 178 -25 297 -54 90 -21 331 -91 337
-96 1 -2 16 -110 33 -242 17 -132 32 -244 33 -249 2 -5 89 -8 200 -7 l197 2
51 35 c28 19 55 34 61 34 5 0 6 5 3 10 -3 6 -36 10 -73 10 -78 0 -107 15 -128
66 -18 43 -18 86 0 129 15 34 72 79 88 69 4 -3 13 -2 19 2 10 6 -75 42 -337
143 -44 17 -85 31 -91 31 -6 0 -16 44 -22 98 -7 53 -25 194 -42 312 -16 118
-31 234 -35 258 -3 23 -2 42 3 42 30 0 616 -251 639 -274 6 -6 17 -58 24 -116
6 -58 18 -159 26 -225 8 -66 17 -149 20 -185 4 -41 12 -70 22 -77 12 -10 82
-13 273 -13 256 0 258 0 285 -23 23 -20 28 -34 32 -84 4 -62 -10 -105 -44
-134 -11 -9 -50 -16 -108 -19 l-91 -5 80 -35 c74 -32 89 -35 198 -38 l117 -4
0 29 c0 15 -14 154 -30 308 -16 154 -30 281 -30 283 0 1 12 -4 28 -11 53 -28
384 -137 504 -167 67 -17 124 -33 126 -35 3 -2 13 -88 23 -191 9 -102 20 -189
24 -192 4 -4 176 -9 384 -11 l377 -3 -12 143 c-7 79 -15 163 -17 186 l-4 42
41 6 c146 24 402 119 564 209 45 25 84 46 87 46 2 0 2 -24 0 -52 -2 -29 -4
-145 -5 -258 l0 -206 -97 -52 c-106 -57 -170 -92 -191 -106 -10 -6 0 -16 36
-37 51 -29 85 -66 118 -129 24 -46 24 -179 0 -273 -10 -38 -16 -71 -13 -74 3
-3 45 25 93 62 47 36 90 63 94 58 10 -10 44 -309 37 -327 -3 -7 -27 -19 -54
-26 -83 -22 -71 -30 44 -30 62 0 114 4 117 8 3 5 -6 82 -19 173 -83 569 -96
1212 -37 1807 10 94 14 172 10 172 -5 0 -27 -12 -51 -27 -180 -114 -442 -200
-712 -233 -119 -15 -408 -15 -515 -1 -121 17 -325 65 -470 110 -115 37 -338
118 -385 140 -11 6 -112 53 -225 105 -113 52 -361 173 -552 269 -653 328 -884
429 -1206 523 -242 70 -394 95 -612 99 -124 3 -216 0 -280 -9z m680 -147 c129
-24 291 -70 427 -120 58 -21 62 -25 67 -58 3 -20 15 -106 26 -191 11 -85 31
-229 44 -320 12 -91 19 -166 15 -168 -5 -2 -63 15 -131 36 -145 47 -265 78
-401 102 -54 10 -103 22 -107 26 -8 8 -110 667 -110 707 0 20 -6 20 170 -14z
m-935 -51 c7 -20 115 -666 115 -688 0 -14 -16 -24 -67 -40 -157 -51 -390 -180
-547 -304 -33 -25 -60 -45 -62 -43 -1 1 -18 74 -38 162 -19 88 -51 229 -71
314 -19 85 -35 166 -35 180 0 20 18 40 83 92 180 145 370 257 542 319 61 22
74 24 80 8z m2549 -613 c222 -109 326 -165 326 -176 0 -8 16 -154 35 -324 19
-170 32 -311 30 -314 -8 -7 -628 268 -648 288 -6 6 -36 237 -84 640 -4 35 -3
52 4 50 6 -2 157 -76 337 -164z m-1786 -85 c45 0 54 -3 61 -22 5 -13 30 -169
55 -346 26 -178 50 -330 53 -338 4 -11 -27 -13 -179 -13 -167 1 -242 -6 -418
-37 l-35 -6 -55 334 c-30 183 -54 344 -54 357 -1 22 6 26 84 43 102 22 280 38
370 32 36 -2 89 -4 118 -4z m3057 -405 c150 -30 286 -45 413 -45 l98 0 22
-247 c13 -137 22 -264 22 -285 l0 -36 -107 -7 c-125 -9 -282 -1 -438 21 -60 9
-111 17 -112 18 -2 2 -63 593 -63 610 0 5 10 6 23 2 12 -3 76 -17 142 -31z
m-3528 -631 c17 -104 41 -252 53 -329 11 -77 22 -149 25 -161 4 -19 -9 -26
-128 -68 -141 -51 -251 -106 -386 -193 -46 -30 -86 -52 -88 -49 -3 3 -14 45
-24 93 -10 48 -43 196 -73 328 -50 223 -53 241 -38 256 39 39 219 152 324 204
110 54 273 116 293 111 5 -1 24 -88 42 -192z"/>
<path d="M5500 11511 c-13 -25 -13 -57 0 -82 9 -17 22 -19 99 -19 48 0 116 -3
150 -6 l62 -7 -3 -56 -3 -56 -57 -7 c-61 -8 -117 -32 -164 -71 -29 -24 -31
-24 -338 -31 -211 -4 -317 -10 -334 -19 -45 -22 -58 -64 -66 -214 l-7 -138
-34 -35 c-62 -63 -56 -166 12 -220 l25 -19 -13 -92 -13 -91 -61 6 c-33 4 -94
11 -135 16 -41 5 -109 9 -151 10 -75 0 -76 0 -129 46 -30 25 -65 50 -78 55
-31 12 -274 12 -306 -1 -21 -8 -25 -16 -28 -57 -3 -52 3 -47 -95 -73 -80 -20
-127 -79 -157 -196 -17 -65 -46 -252 -46 -294 0 -26 -3 -27 -61 -34 -125 -13
-115 -19 -122 87 -10 154 -75 308 -162 384 -64 56 -176 106 -189 84 -3 -5 8
-28 25 -51 31 -43 64 -110 54 -110 -3 0 -67 12 -143 26 -117 23 -165 27 -332
28 -210 1 -243 -5 -337 -59 -80 -48 -159 -163 -219 -321 -26 -70 -64 -220 -64
-257 -1 -25 -23 -54 -62 -79 -15 -10 -39 -34 -54 -54 l-28 -36 -17 -511 c-11
-326 -13 -518 -7 -530 8 -15 21 -17 94 -15 l85 3 24 -59 c46 -113 123 -179
230 -196 82 -14 661 -13 724 1 102 22 165 91 208 228 l28 89 280 7 c275 6 282
6 395 -19 455 -99 961 -96 1488 10 121 24 129 24 335 14 326 -16 1061 -50
1073 -50 7 0 15 -17 19 -37 17 -91 105 -198 182 -221 25 -7 175 -12 428 -13
349 -2 394 0 430 15 73 31 119 90 145 185 l11 43 177 -6 c97 -4 299 -7 447 -9
l270 -2 49 25 c59 30 118 101 134 161 14 54 38 248 53 434 22 274 0 881 -41
1104 -25 135 -91 199 -237 231 -158 34 -283 44 -526 45 -130 0 -237 1 -237 3
0 1 22 46 48 100 125 251 166 447 114 549 -36 70 -134 122 -257 138 -52 6
-653 18 -1000 19 l-270 1 -55 -31 c-30 -17 -73 -42 -96 -54 l-40 -23 -63 44
-62 44 -145 2 c-129 2 -148 5 -174 23 -38 27 -161 70 -200 70 l-30 0 0 65 0
65 149 0 c169 0 174 2 169 72 l-3 43 -377 3 c-365 2 -378 2 -388 -17z m514
-316 c154 -40 288 -153 366 -307 24 -48 41 -90 38 -94 -3 -3 -41 6 -85 19 -43
14 -103 30 -133 36 l-55 11 -17 68 c-9 37 -32 94 -50 127 -43 77 -61 83 -254
87 -136 3 -151 1 -176 -17 -38 -28 -75 -100 -83 -163 -8 -60 -28 -66 -33 -10
-4 49 32 139 76 188 56 63 120 82 248 75 56 -3 127 -12 158 -20z m1085 -179
c12 -11 21 -30 21 -44 0 -30 -30 -82 -48 -82 -9 0 -7 -9 8 -30 12 -16 18 -34
15 -40 -10 -17 -58 0 -88 31 -15 16 -36 29 -45 29 -37 0 -62 -13 -62 -31 0
-22 -31 -41 -49 -29 -10 6 -11 19 -5 56 l9 49 100 5 c94 5 100 6 103 27 3 21
0 22 -93 25 l-97 3 23 28 c21 28 24 29 104 25 64 -2 88 -7 104 -22z m310 -83
c24 -57 41 -106 37 -110 -8 -8 -186 -11 -186 -3 2 20 42 50 69 50 17 0 31 4
31 10 0 14 -33 80 -39 79 -3 0 -30 -34 -60 -75 -39 -53 -60 -74 -76 -74 -47 0
-42 9 69 153 84 108 95 105 155 -30z m309 77 c-20 -28 -26 -30 -90 -30 -73 0
-88 -11 -88 -64 0 -34 26 -46 104 -46 36 0 66 -4 66 -8 0 -20 -38 -40 -88 -46
-59 -8 -115 12 -133 47 -15 26 -14 79 2 108 29 55 59 67 172 68 l78 1 -23 -30z
m262 5 c-21 -21 -36 -25 -88 -26 -52 -1 -62 -4 -60 -18 2 -12 19 -17 70 -21
61 -5 65 -7 54 -22 -8 -11 -31 -18 -68 -21 -61 -5 -81 -13 -75 -30 2 -8 29
-11 80 -8 81 3 91 -3 56 -35 -17 -16 -36 -19 -108 -19 l-86 1 3 49 c1 28 7 78
13 113 l11 62 111 0 112 0 -25 -25z m-2055 -174 c189 -28 437 -78 501 -102
110 -42 224 -130 301 -236 26 -35 49 -60 50 -56 2 5 -8 42 -22 83 -14 40 -25
77 -25 82 0 5 190 7 430 4 347 -4 447 -2 520 10 115 18 220 47 337 91 51 20
99 33 108 30 37 -15 9 -113 -83 -292 -47 -91 -141 -255 -146 -255 -2 0 -17 7
-33 15 -79 39 -185 58 -333 59 -173 0 -236 -13 -372 -78 -115 -55 -202 -131
-245 -213 -94 -176 -138 -458 -131 -836 3 -193 3 -197 -17 -191 -11 4 -21 7
-22 8 -1 1 -5 39 -10 86 l-8 85 -290 7 c-865 21 -1057 27 -1063 33 -4 4 6 18
21 31 26 22 37 24 128 24 108 0 87 -5 419 113 69 24 274 97 455 162 182 65
335 122 342 127 6 5 13 31 15 58 l3 50 -40 4 c-22 3 -247 16 -499 30 -252 14
-461 28 -464 31 -3 2 3 16 12 30 21 31 24 32 456 5 179 -11 375 -23 435 -26
l111 -7 13 52 c7 29 28 80 46 114 l33 62 -342 3 c-228 3 -357 0 -390 -8 -27
-6 -101 -35 -164 -65 -78 -37 -127 -55 -154 -55 -77 0 -138 -44 -138 -100 0
-16 -14 -42 -36 -66 -20 -21 -68 -75 -106 -119 l-70 -80 123 -5 c123 -5 124
-5 133 -32 7 -18 6 -35 -2 -53 l-12 -25 -169 0 -169 0 -70 -87 c-98 -124 -234
-310 -322 -441 -48 -70 -85 -115 -102 -122 -20 -9 -79 -10 -220 -4 l-193 9 -3
27 c-9 75 148 608 277 943 112 291 157 373 220 396 14 6 128 10 258 9 181 0
234 2 237 12 2 7 11 98 20 203 l15 190 -25 26 c-71 74 -183 104 -342 90 -143
-13 -181 -42 -133 -102 17 -23 18 -31 5 -174 -7 -82 -13 -153 -14 -157 0 -4
-19 -13 -42 -20 -51 -15 -103 -66 -129 -124 l-18 -44 -168 0 c-92 0 -240 -3
-328 -7 l-160 -6 -31 -31 c-25 -25 -32 -42 -38 -93 -5 -46 -11 -63 -24 -67
-13 -3 -199 -17 -287 -21 -15 0 -18 77 -5 125 15 54 80 125 133 144 23 9 170
36 327 61 552 88 643 104 650 114 3 6 14 67 23 136 l18 126 -27 45 c-45 76
-24 143 56 184 80 41 259 81 415 94 120 9 454 -4 590 -23z m-530 -275 c31 -13
35 -19 35 -50 l0 -36 -65 0 c-38 0 -65 4 -65 10 0 19 40 90 51 90 5 0 25 -7
44 -14z m-54 -244 l64 -7 -2 -39 c-2 -22 -5 -41 -7 -44 -11 -10 -148 11 -153
24 -9 24 6 84 21 78 7 -3 42 -8 77 -12z m-2053 -167 c38 -78 52 -145 52 -255
0 -79 -3 -93 -25 -126 -32 -47 -33 -109 -4 -167 20 -37 21 -52 15 -141 -9
-136 -25 -238 -42 -256 -45 -51 -53 -144 -18 -197 l14 -23 -70 0 -70 0 0 109
c0 129 22 360 51 526 50 293 61 389 55 480 -3 50 -9 101 -12 115 -6 22 -5 23
9 10 9 -8 29 -42 45 -75z m5766 -77 c38 -133 56 -370 56 -743 0 -406 -32 -740
-75 -775 -18 -15 -28 5 -46 83 -10 45 -10 74 -1 135 44 290 44 820 1 1119 -10
66 -10 95 1 140 23 108 42 119 64 41z m-5919 -164 c-86 -380 -103 -497 -112
-776 l-6 -188 -28 0 -29 0 0 138 c0 227 32 499 82 687 33 128 111 315 125 301
2 -2 -12 -75 -32 -162z m4812 74 c54 -61 90 -174 118 -378 22 -155 32 -637 16
-796 -20 -204 -58 -362 -98 -406 -34 -38 -89 -15 -123 51 -10 20 -10 25 4 33
22 13 51 73 71 146 33 129 48 300 48 547 0 340 -29 556 -89 648 -20 31 -30 37
-58 37 l-34 0 18 47 c19 50 60 93 89 93 10 0 27 -10 38 -22z m-3271 -182 c-5
-19 -14 -26 -39 -30 -26 -5 -546 -46 -932 -74 l-90 -7 -5 -54 c-6 -60 -10 -56
125 -131 33 -18 77 -44 97 -57 21 -12 39 -23 42 -23 2 0 66 -37 142 -83 277
-166 264 -161 360 -153 77 6 84 5 84 -12 0 -10 -6 -25 -12 -34 -13 -15 -47
-18 -463 -44 -38 -3 -198 -14 -354 -24 -157 -11 -290 -20 -298 -20 -8 0 -13
12 -13 29 l0 29 83 6 c45 4 237 18 426 31 189 13 345 26 347 28 2 2 -46 33
-108 68 -139 79 -134 77 -205 118 -32 19 -71 42 -88 51 -16 9 -91 52 -165 95
-74 43 -158 91 -186 107 -55 30 -73 62 -55 97 13 23 17 24 481 57 201 14 469
34 595 43 127 9 232 16 234 14 2 -1 1 -13 -3 -27z m3134 -402 c5 -99 14 -285
21 -414 13 -266 13 -320 2 -331 -23 -23 -287 -160 -323 -168 -29 -6 -74 -5
-148 5 -524 70 -877 97 -1297 98 -347 1 -446 -6 -710 -49 -284 -46 -330 -50
-670 -50 -356 0 -411 5 -737 65 -243 45 -422 61 -703 61 -344 0 -664 -26
-1064 -87 -133 -20 -167 -22 -177 -12 -13 13 -12 24 24 776 7 139 12 176 25
189 9 9 19 14 23 10 3 -3 8 -187 11 -409 2 -222 6 -408 8 -414 8 -26 510 90
760 176 171 59 190 61 510 70 165 5 343 13 395 19 180 21 345 28 487 22 78 -3
144 -9 147 -12 3 -3 -2 -52 -12 -110 -9 -57 -16 -114 -14 -126 5 -37 55 -50
235 -63 196 -14 249 -9 335 31 57 27 70 40 143 139 l81 109 72 17 c121 28 319
30 497 4 135 -20 182 -22 384 -18 333 7 469 -8 774 -88 122 -32 441 -136 598
-195 35 -12 65 -20 68 -17 4 3 11 161 16 350 12 487 12 473 34 498 29 32 179
120 188 111 5 -5 13 -89 17 -187z m-3234 120 c-3 -9 -9 -33 -12 -55 l-7 -40
-141 3 -141 3 -3 39 c-6 67 -9 66 159 66 134 0 150 -2 145 -16z m-1049 -43
l68 -39 3 -120 3 -120 -78 -7 c-43 -4 -85 -7 -93 -8 -16 -2 -16 -5 -1 123 6
47 11 113 11 148 0 34 4 62 9 62 5 0 40 -17 78 -39z m-321 -934 c14 -13 -15
-131 -48 -197 -29 -56 -37 -65 -63 -68 -26 -2 -34 3 -57 39 -27 42 -58 153
-58 209 l0 32 109 -4 c60 -1 113 -6 117 -11z"/>
<path d="M5925 10683 c-179 -21 -370 -89 -379 -136 -8 -36 -46 -340 -46 -364
l0 -23 188 0 187 0 -65 -24 c-97 -34 -160 -69 -231 -128 -174 -143 -300 -331
-515 -764 -112 -226 -137 -306 -51 -159 348 591 583 854 859 964 141 56 188
61 631 61 l403 0 35 36 c48 50 167 128 236 154 32 12 96 28 143 36 47 7 86 13
88 14 10 2 -2 42 -19 64 l-20 26 -203 0 -202 0 -45 -28 c-24 -16 -50 -36 -58
-46 -21 -26 -109 -68 -134 -64 -15 2 -41 32 -79 88 -95 143 -175 201 -348 254
-131 39 -260 53 -375 39z m-40 -124 c36 -70 55 -152 55 -235 l0 -72 -62 -11
c-35 -6 -123 -14 -197 -18 -125 -6 -134 -5 -128 11 4 10 7 29 7 42 0 23 3 24
65 24 93 0 162 17 168 41 9 34 -13 88 -50 125 -37 38 -52 39 -140 17 -19 -4
-23 -1 -23 20 0 28 11 39 60 57 63 22 205 58 213 53 4 -2 19 -27 32 -54z m420
20 c100 -37 182 -113 268 -247 l28 -44 -287 4 -288 3 -9 40 c-12 59 -37 167
-43 187 -5 15 6 18 88 20 l93 3 3 34 3 33 47 -7 c25 -4 69 -15 97 -26z"/>
<path d="M6480 9478 c-124 -44 -272 -97 -330 -118 -58 -21 -159 -57 -225 -81
-66 -23 -123 -45 -128 -48 -4 -4 203 -12 460 -19 256 -7 467 -11 468 -10 1 2
5 83 8 181 5 162 5 177 -11 176 -9 0 -118 -37 -242 -81z"/>
<path d="M14105 11486 c-12 -18 -14 -33 -7 -58 l8 -33 125 -6 c68 -3 125 -7
127 -8 1 0 2 -25 2 -55 l0 -54 -59 -10 c-64 -12 -130 -41 -162 -73 -19 -19
-38 -20 -320 -26 -325 -7 -351 -11 -376 -63 -6 -14 -15 -86 -18 -160 -7 -129
-9 -136 -35 -165 -38 -41 -50 -68 -50 -110 0 -42 18 -81 52 -112 24 -23 24
-24 13 -108 -7 -47 -14 -87 -16 -90 -3 -2 -54 2 -115 9 -60 8 -154 17 -209 21
-99 7 -101 8 -143 46 -23 22 -54 44 -68 49 -44 17 -301 7 -320 -12 -3 -4 -9
-27 -11 -52 -5 -45 -6 -45 -52 -52 -61 -8 -124 -46 -151 -88 -27 -45 -65 -196
-81 -325 -7 -57 -17 -104 -23 -106 -6 -2 -44 -5 -83 -7 l-73 -4 0 56 c-1 137
-72 322 -154 398 -51 47 -119 88 -163 97 -38 8 -41 -2 -14 -36 21 -28 45 -74
56 -108 6 -21 5 -23 -11 -17 -52 20 -266 52 -404 61 -297 18 -431 -50 -545
-279 -53 -107 -105 -273 -105 -337 0 -31 -35 -78 -75 -99 -38 -20 -63 -75 -69
-156 -11 -130 -29 -900 -22 -927 6 -24 11 -27 49 -27 23 1 61 5 85 9 23 5 42
5 42 0 0 -31 50 -130 83 -167 83 -89 71 -87 497 -90 414 -3 414 -3 485 59 43
38 60 69 96 174 l27 80 288 3 c258 2 299 0 384 -18 459 -97 944 -90 1505 23
63 13 151 10 974 -31 l345 -17 17 -58 c22 -75 72 -139 134 -174 l50 -28 390
-3 c334 -2 396 -1 431 13 71 27 131 101 149 184 l7 34 419 -7 c459 -7 475 -6
546 47 69 52 90 104 112 268 56 414 51 1027 -10 1373 -16 93 -74 167 -158 202
-86 36 -294 58 -563 58 -142 1 -258 2 -258 4 0 2 8 20 19 40 10 20 32 64 49
97 97 193 138 407 93 497 -35 72 -122 119 -256 138 -38 6 -333 13 -655 16
l-585 6 -85 -51 c-47 -28 -89 -51 -95 -51 -5 0 -36 18 -69 40 l-59 40 -133 0
-133 0 -75 39 c-41 22 -102 45 -135 52 l-61 12 0 58 0 58 133 3 132 3 0 55 0
55 -322 3 -322 2 -16 -24z m485 -314 c98 -35 143 -63 216 -136 51 -52 82 -95
114 -158 25 -48 42 -89 39 -92 -2 -3 -47 8 -99 24 -52 16 -111 31 -131 35 -34
5 -36 8 -48 57 -16 71 -77 195 -102 209 -11 6 -93 13 -182 16 l-162 6 -33 -28
c-41 -34 -68 -86 -77 -148 -8 -52 -20 -68 -30 -37 -20 63 39 193 110 242 53
36 60 37 205 33 93 -2 139 -8 180 -23z m1028 -161 c32 -28 30 -83 -4 -110 -27
-21 -27 -29 2 -68 16 -23 16 -23 -22 -23 -34 0 -41 4 -52 30 -13 27 -18 30
-63 30 -48 0 -49 -1 -49 -30 0 -27 -3 -30 -31 -30 -30 0 -31 2 -25 31 3 17 6
42 6 55 0 24 2 24 94 24 70 0 97 4 106 15 22 26 0 35 -91 35 -49 0 -89 3 -89
7 0 4 10 17 22 30 19 20 31 23 97 23 59 -1 81 -5 99 -19z m309 -86 c24 -55 43
-103 43 -107 0 -5 -43 -8 -95 -8 l-95 0 16 25 c12 19 25 25 50 25 39 0 40 3
18 56 l-16 39 -34 -40 c-19 -22 -44 -55 -57 -72 -16 -24 -30 -33 -51 -33 -20
0 -27 4 -23 14 7 17 137 189 151 199 31 21 50 1 93 -98z m313 93 c0 -31 -33
-48 -93 -48 -70 0 -97 -17 -97 -61 0 -38 24 -49 104 -49 36 0 66 -2 66 -5 0
-3 -8 -14 -17 -25 -14 -16 -30 -20 -75 -20 -73 0 -103 12 -123 49 -20 39 -19
59 3 100 27 51 73 71 159 71 49 0 73 -4 73 -12z m250 5 c0 -5 -7 -16 -14 -25
-10 -14 -28 -18 -74 -18 -42 0 -61 -4 -65 -14 -9 -22 2 -26 76 -26 69 0 70 0
52 -20 -13 -15 -31 -20 -66 -20 -57 0 -79 -7 -79 -26 0 -11 19 -14 82 -14 l81
0 -23 -25 c-22 -23 -30 -25 -113 -25 l-89 0 5 33 c3 17 11 67 18 110 l12 77
98 0 c55 0 99 -3 99 -7z m-2105 -178 c153 -18 432 -67 526 -93 131 -37 282
-146 360 -262 19 -27 37 -50 41 -50 4 0 -6 38 -22 85 l-29 85 422 0 c455 0
523 6 695 54 51 15 118 38 148 51 31 14 69 25 85 25 27 0 29 -3 29 -36 0 -55
-89 -257 -175 -394 -12 -19 -25 -45 -29 -57 -13 -42 -32 -47 -84 -25 -97 41
-193 55 -350 50 -119 -4 -159 -9 -212 -28 -121 -43 -187 -82 -284 -170 -66
-61 -125 -198 -152 -355 -8 -49 -20 -119 -26 -155 -6 -36 -12 -181 -12 -323
-1 -252 -1 -258 -21 -255 -18 3 -20 12 -23 86 -2 54 -7 84 -15 87 -7 2 -248 9
-537 14 -700 15 -790 19 -783 37 11 30 60 44 155 44 89 0 101 3 263 61 343
123 421 151 480 171 122 42 438 157 440 160 8 9 11 99 4 104 -5 3 -203 16
-441 29 -238 13 -453 25 -478 27 -53 4 -65 28 -27 53 22 14 57 14 428 -9 222
-14 433 -26 468 -27 l64 -3 21 60 c12 33 34 81 49 107 20 37 23 49 13 53 -8 3
-173 4 -367 2 l-354 -3 -83 -38 c-45 -21 -99 -48 -120 -60 -23 -14 -62 -24
-106 -28 -59 -5 -73 -11 -93 -33 -13 -15 -23 -39 -23 -54 0 -19 -19 -48 -63
-98 -34 -38 -81 -92 -105 -120 l-42 -49 122 -5 123 -5 3 -38 c5 -65 -1 -67
-183 -67 l-162 0 -39 -47 c-61 -74 -202 -265 -301 -408 -135 -194 -123 -185
-236 -185 -52 0 -142 3 -200 7 -90 5 -107 9 -112 24 -9 28 89 404 164 629 100
298 224 604 265 649 41 46 70 51 311 51 172 0 227 3 230 13 2 6 11 94 19 195
12 140 13 187 4 201 -14 24 -100 75 -152 91 -56 18 -272 8 -314 -14 -37 -19
-40 -37 -12 -76 19 -27 20 -35 10 -152 -16 -186 -15 -185 -52 -192 -48 -10
-96 -52 -126 -112 l-26 -54 -271 -1 c-148 0 -294 -4 -323 -8 -76 -11 -103 -41
-111 -123 l-6 -63 -65 -6 c-228 -22 -237 -22 -244 3 -24 93 47 215 145 247 28
8 368 66 599 101 240 36 336 53 342 58 4 4 16 66 26 137 l19 130 -23 31 c-28
37 -32 108 -8 142 38 55 208 111 396 131 137 14 413 12 553 -4z m-430 -279
c31 -13 35 -19 35 -50 l0 -36 -65 0 c-36 0 -65 2 -65 5 0 13 45 95 52 95 5 0
24 -7 43 -14z m-42 -241 l58 -7 -3 -41 c-2 -35 -6 -42 -23 -40 -11 1 -46 5
-77 8 l-58 6 0 38 c0 43 7 53 29 47 9 -2 42 -7 74 -11z m-1989 -224 c35 -111
37 -257 5 -301 -33 -44 -36 -116 -9 -170 21 -40 22 -53 16 -142 -8 -124 -26
-248 -36 -248 -5 0 -17 -19 -28 -42 -20 -43 -19 -99 2 -150 6 -14 0 -18 -37
-23 -85 -13 -82 -18 -79 145 3 174 22 342 64 590 33 192 42 367 24 460 l-8 45
30 -41 c17 -23 42 -78 56 -123z m5630 -92 c30 -165 39 -367 33 -736 -6 -369
-22 -564 -52 -636 -17 -42 -29 -46 -45 -17 -25 47 -31 126 -16 220 9 51 21
190 27 309 13 239 2 561 -26 744 -16 105 -9 177 22 226 l16 24 13 -24 c7 -14
19 -63 28 -110z m-5778 39 c-4 -24 -20 -98 -36 -165 -70 -291 -90 -431 -97
-690 -5 -155 -9 -203 -19 -203 -7 0 -20 -3 -30 -7 -16 -6 -16 8 -11 213 9 354
57 606 156 827 17 37 33 67 37 67 4 0 4 -19 0 -42z m4683 -56 c85 -85 134
-398 133 -857 -1 -344 -34 -575 -96 -669 -30 -46 -81 -33 -123 31 -15 22 -14
25 5 46 79 84 118 358 109 769 -5 242 -16 341 -53 467 -19 67 -64 115 -100
108 -21 -4 -24 -1 -18 17 34 109 88 143 143 88z m-3204 -172 c-11 -21 -23 -30
-39 -30 -14 0 -226 -16 -473 -35 -246 -19 -466 -36 -488 -38 l-40 -3 -3 -55
-3 -55 98 -55 c54 -31 204 -118 333 -193 l235 -138 89 6 88 7 -7 -28 c-9 -36
-7 -35 -57 -40 -124 -10 -934 -64 -1007 -67 -40 -1 -45 1 -52 27 -5 17 -3 27
3 27 6 0 99 7 207 15 108 8 292 22 410 30 118 8 216 17 218 19 4 4 -65 44
-497 290 -102 57 -209 119 -237 136 -56 33 -73 63 -54 98 11 21 27 24 291 42
390 27 858 61 880 64 14 1 46 4 73 5 l48 1 -16 -30z m3056 -212 c0 -7 2 -35 4
-63 2 -27 12 -225 21 -438 17 -381 17 -388 -2 -407 -10 -10 -80 -52 -154 -92
-161 -87 -145 -85 -470 -45 -494 61 -831 82 -1215 74 -271 -6 -418 -18 -595
-51 -198 -36 -373 -50 -630 -50 -292 0 -544 25 -790 79 -36 7 -126 21 -200 29
-386 42 -815 25 -1385 -55 -242 -33 -251 -34 -258 -14 -4 8 -2 92 3 187 5 95
14 292 20 438 11 258 19 313 44 323 14 6 26 -285 26 -630 0 -174 1 -183 19
-183 74 0 460 93 666 160 248 81 256 82 585 90 162 4 369 16 460 25 158 17
492 17 518 1 6 -3 2 -44 -10 -108 -10 -57 -16 -113 -13 -125 8 -34 74 -51 256
-64 149 -10 172 -9 225 6 100 28 136 56 219 168 l75 104 92 17 c154 30 254 31
428 5 135 -20 195 -23 475 -24 355 -1 381 -4 665 -76 135 -34 424 -128 617
-200 35 -12 64 -21 67 -18 2 2 6 130 10 284 8 358 16 516 27 537 5 10 40 37
77 61 110 72 121 77 123 55z m-3158 -80 c-15 -82 -14 -82 -106 -75 -45 4 -103
7 -129 7 -55 0 -74 21 -63 71 l7 29 149 0 149 0 -7 -32z m-951 -94 c4 -21 7
-76 7 -121 1 -79 0 -83 -21 -84 -13 0 -54 -3 -91 -8 -38 -4 -70 -4 -72 -1 -2
3 3 51 11 105 7 55 14 128 14 163 l0 64 72 -39 c67 -36 73 -42 80 -79z m-428
-830 c45 -7 46 -8 46 -41 0 -76 -53 -201 -97 -231 -21 -13 -25 -12 -50 15 -35
37 -63 115 -70 192 -5 56 -4 59 18 64 39 7 103 7 153 1z"/>
<path d="M14485 10679 c-93 -8 -181 -29 -279 -66 -80 -30 -106 -52 -106 -91 0
-16 -7 -73 -15 -128 -8 -54 -17 -127 -21 -161 l-7 -63 184 0 184 -1 -78 -29
c-191 -71 -351 -224 -504 -480 -127 -213 -320 -597 -311 -620 2 -4 34 44 73
108 114 192 266 420 360 540 176 226 318 330 555 405 61 20 94 21 489 25 l425
3 61 57 c97 90 239 154 368 167 l69 8 -6 30 c-11 55 -21 57 -242 55 l-201 -3
-58 -40 c-163 -113 -176 -113 -239 -3 -117 203 -388 313 -701 287z m-55 -101
c44 -71 85 -282 62 -311 -12 -14 -128 -30 -299 -41 l-73 -5 0 45 0 44 78 0
c42 0 94 5 116 11 l38 11 -6 45 c-7 54 -46 110 -82 119 -23 6 -78 -1 -110 -13
-10 -4 -14 3 -14 25 0 27 5 31 58 50 73 27 160 50 190 51 15 1 29 -10 42 -31z
m396 5 c67 -22 141 -71 192 -126 42 -47 102 -134 102 -149 0 -4 -123 -8 -274
-8 l-274 0 -12 68 c-6 37 -18 89 -26 116 -7 27 -14 51 -14 53 0 2 37 3 83 3
86 0 107 8 107 42 0 24 48 24 116 1z"/>
<path d="M15110 9534 c-85 -31 -288 -103 -450 -161 -162 -58 -301 -108 -309
-113 -7 -4 110 -10 260 -14 151 -3 361 -9 467 -13 l192 -6 0 182 c0 99 -1 181
-2 180 -2 0 -73 -25 -158 -55z"/>
<path d="M17595 11004 c-139 -39 -279 -57 -450 -56 -93 1 -179 2 -190 4 -17 3
-20 -3 -23 -42 -5 -103 -51 -258 -108 -372 -13 -26 -24 -52 -24 -58 0 -6 51
-10 143 -10 78 0 205 -7 281 -15 77 -8 140 -14 141 -12 12 19 49 84 72 127 16
30 78 141 136 247 59 106 107 194 107 197 0 9 -31 5 -85 -10z"/>
<path d="M12027 10249 c10 -18 24 -42 31 -55 10 -18 22 -24 45 -24 18 0 48 -3
67 -6 l35 -6 16 55 16 55 -61 6 c-34 3 -85 5 -114 5 l-52 1 17 -31z"/>
<path d="M4219 7651 c-29 -29 -31 -36 -26 -79 2 -26 8 -55 12 -65 7 -18 4 -18
-51 -10 -131 18 -320 0 -454 -43 -153 -50 -356 -179 -518 -330 -154 -143 -407
-437 -567 -658 -28 -38 -64 -85 -81 -105 -17 -20 -75 -90 -129 -156 -210 -256
-384 -424 -560 -542 -134 -90 -307 -162 -439 -183 -108 -18 -358 -7 -461 19
-43 11 -80 19 -82 17 -2 -2 47 -93 108 -202 62 -109 160 -287 219 -394 311
-567 387 -700 404 -700 28 0 23 19 -35 127 -33 63 -58 117 -55 121 4 3 30 -2
59 -10 89 -28 168 -40 291 -47 l118 -6 33 -58 c38 -69 47 -77 100 -77 22 -1
73 -7 113 -14 39 -7 72 -11 72 -10 0 2 -5 15 -10 30 -13 34 1 73 33 94 31 19
93 13 156 -15 29 -14 55 -25 57 -25 2 0 -19 49 -46 110 l-49 109 60 37 c56 34
172 118 245 178 l31 25 26 -52 c26 -53 93 -206 116 -264 16 -40 17 -39 -154
-154 -66 -45 -119 -85 -118 -89 1 -5 13 -24 27 -44 42 -63 97 -207 108 -288 9
-63 14 -78 28 -78 15 0 20 16 29 95 16 123 54 264 85 313 13 21 39 52 58 68
l35 31 -18 49 c-11 27 -19 52 -19 56 0 3 33 34 73 69 39 34 108 95 151 136 44
40 82 71 85 68 3 -3 24 -52 47 -108 l42 -102 84 -6 c86 -6 130 -19 160 -46 16
-14 20 -14 36 -1 133 113 174 147 250 202 99 73 142 121 142 161 l0 26 -62
-42 c-35 -23 -89 -62 -121 -87 -32 -24 -61 -42 -64 -39 -3 3 -36 86 -73 184
-37 98 -71 185 -74 193 -7 17 0 25 109 111 88 69 183 131 203 133 11 1 27 -32
56 -111 23 -62 43 -113 46 -113 3 0 12 13 21 29 9 15 33 41 54 57 38 29 40 29
197 32 87 2 158 7 158 11 0 4 -18 61 -40 126 -22 65 -40 125 -40 133 0 10 29
12 145 10 l145 -3 10 25 c22 51 50 61 171 62 73 0 112 5 115 12 3 8 -275 954
-386 1311 -34 111 -52 169 -70 230 -11 39 -30 99 -40 135 -11 36 -43 142 -71
235 -27 94 -58 178 -68 189 -11 10 -39 20 -64 23 -42 5 -49 2 -78 -26z m8
-233 c5 -7 17 -38 25 -68 9 -30 37 -126 62 -212 25 -87 46 -162 46 -167 0 -6
-59 -7 -147 -4 -113 4 -168 1 -232 -11 -46 -9 -86 -14 -88 -12 -8 7 -143 417
-143 432 0 18 11 23 102 39 98 18 362 19 375 3z m-848 -495 l73 -208 -63 -55
c-35 -30 -110 -99 -165 -153 -56 -54 -104 -95 -107 -90 -14 22 -147 376 -147
390 0 17 305 323 322 323 8 0 41 -79 87 -207z m570 -253 c39 -113 71 -211 71
-217 0 -7 -7 -13 -15 -13 -29 0 -170 -60 -259 -110 -50 -28 -93 -47 -96 -43
-6 8 -150 398 -150 408 0 7 111 80 160 105 79 41 205 89 212 82 4 -4 39 -99
77 -212z m558 -245 c11 -4 23 -14 26 -23 98 -327 126 -426 123 -430 -3 -2 -44
1 -93 8 -57 8 -131 10 -214 6 l-127 -7 -51 153 c-28 84 -62 181 -74 215 -12
34 -18 65 -14 69 16 17 92 23 242 19 88 -1 170 -6 182 -10z m-1824 -267 c37
-93 67 -174 67 -180 0 -7 -39 -58 -87 -113 -162 -188 -212 -240 -222 -230 -8
9 -106 225 -140 311 -12 31 -12 32 116 185 71 85 140 169 153 187 19 25 26 30
35 20 7 -7 42 -88 78 -180z m441 137 c9 -20 43 -107 77 -195 l61 -160 -133
-147 c-74 -81 -143 -158 -155 -171 l-21 -23 -16 38 c-52 122 -126 301 -132
321 -5 18 8 40 77 120 147 172 218 252 224 252 2 0 10 -16 18 -35z m529 -127
c9 -24 42 -117 75 -208 l60 -164 -81 -60 c-80 -58 -211 -166 -234 -194 -15
-17 -13 -20 -84 165 -96 248 -94 214 -13 292 75 74 240 211 253 211 5 0 15
-19 24 -42z m602 -388 c62 -178 95 -279 95 -289 0 -5 -18 -11 -41 -15 -52 -8
-163 -47 -251 -87 -37 -18 -70 -30 -73 -28 -3 4 -77 202 -141 382 l-13 37 80
40 c131 66 275 117 290 101 4 -3 28 -67 54 -141z m-2291 -332 c89 -188 93
-164 -44 -232 -75 -37 -267 -103 -275 -94 -9 10 -155 309 -155 318 0 5 9 10
20 10 48 0 195 60 305 124 33 20 63 36 66 36 3 0 40 -73 83 -162z m520 -8 c26
-58 59 -133 73 -168 25 -61 25 -63 7 -84 -32 -35 -166 -144 -244 -198 l-75
-51 -32 68 c-18 37 -53 112 -79 167 -39 81 -45 100 -33 107 36 20 219 172 269
223 30 31 57 53 61 48 3 -4 27 -54 53 -112z m535 -97 c39 -94 71 -175 71 -180
0 -8 -161 -175 -258 -267 l-51 -49 -11 27 c-5 15 -21 51 -34 79 -13 29 -42 96
-66 149 l-42 97 130 138 c72 76 140 151 153 166 12 16 25 25 29 20 5 -4 40
-85 79 -180z m450 65 c11 -29 44 -117 74 -195 l55 -142 -67 -63 c-36 -34 -105
-101 -153 -147 l-87 -84 -22 49 c-47 110 -129 315 -129 324 0 11 289 310 301
310 4 0 17 -24 28 -52z m-2175 -314 c67 -11 137 -15 216 -12 l116 4 77 -150
c58 -113 74 -152 65 -159 -7 -4 -69 -6 -138 -3 -160 8 -350 48 -350 76 0 5
-31 66 -70 135 -38 69 -70 128 -70 131 0 4 12 4 28 0 15 -3 72 -13 126 -22z
m955 -246 c11 -24 44 -96 75 -161 31 -65 54 -122 51 -127 -14 -23 -233 -95
-345 -114 l-35 -6 -78 156 c-43 86 -77 157 -75 158 2 1 37 10 79 20 85 19 212
66 262 96 17 11 36 20 40 20 4 0 16 -19 26 -42z"/>
<path d="M5990 7653 c-32 -30 -18 14 -296 -913 -126 -422 -124 -414 -187 -630
-30 -102 -78 -261 -107 -355 -29 -93 -53 -179 -54 -190 -1 -18 6 -20 89 -22
50 -1 98 -2 108 -2 10 -1 33 -15 50 -33 l32 -32 145 2 c80 2 151 -1 159 -6 11
-8 5 -35 -33 -147 -25 -76 -46 -144 -46 -151 0 -13 51 -54 68 -54 5 0 41 19
78 43 l69 42 139 5 139 5 14 40 c7 22 17 43 22 48 5 5 41 -13 85 -42 l75 -51
129 0 129 0 53 135 c29 74 55 135 59 135 4 0 68 -63 141 -140 129 -136 135
-140 175 -140 l41 0 63 158 c34 87 66 164 72 172 7 12 19 4 62 -40 217 -229
257 -274 253 -284 -2 -6 -15 -35 -27 -64 -22 -51 -23 -54 -6 -80 43 -68 51
-97 51 -182 1 -47 -3 -108 -7 -135 l-8 -51 99 -65 100 -65 -38 -81 c-44 -94
-45 -93 68 -93 35 0 133 -11 218 -25 86 -14 159 -23 163 -21 4 3 16 23 27 45
l19 41 105 0 c95 0 252 25 349 56 32 10 29 3 -57 -153 l-72 -132 -81 -26 c-63
-21 -79 -30 -74 -43 10 -27 23 -95 30 -160 4 -35 11 -60 15 -55 4 4 52 89 107
188 55 99 113 203 128 230 15 28 52 94 81 148 30 53 74 133 99 177 25 43 73
132 108 197 35 65 82 150 104 188 76 132 263 476 263 484 0 5 -29 0 -65 -10
-236 -65 -512 -42 -732 61 -306 143 -521 351 -992 959 -284 367 -488 587 -674
727 -251 189 -475 263 -752 252 l-122 -6 9 38 c26 101 -86 171 -162 103z m540
-229 c36 -9 67 -18 69 -20 3 -3 -29 -104 -70 -225 l-74 -221 -35 6 c-19 3 -64
10 -100 15 -75 12 -201 13 -278 2 -29 -4 -54 -5 -56 -2 -2 3 19 78 46 166 27
88 58 190 69 227 19 65 20 67 57 71 76 10 307 -2 372 -19z m691 -427 c50 -51
107 -111 126 -134 l35 -42 -78 -201 -77 -201 -116 113 c-64 63 -138 132 -166
155 l-50 41 14 38 c34 99 133 370 138 377 7 11 71 -42 174 -146z m-641 -128
c64 -27 207 -108 252 -143 18 -13 13 -31 -113 -373 l-23 -62 -40 25 c-70 44
-219 114 -273 130 -30 9 -53 21 -53 29 0 7 32 106 71 219 57 164 75 206 89
206 10 0 50 -14 90 -31z m-380 -420 c35 -5 67 -12 69 -15 3 -2 -7 -39 -21 -82
-40 -117 -122 -357 -123 -359 -1 -1 -42 2 -93 8 -86 11 -264 1 -329 -17 -20
-6 -19 2 28 158 28 89 59 193 70 230 l20 67 47 6 c26 4 52 8 57 10 23 8 215 4
275 -6z m1681 -239 c68 -83 137 -166 152 -184 l28 -33 -75 -173 c-41 -95 -77
-175 -80 -177 -11 -11 -319 345 -312 361 30 72 103 245 123 294 14 34 28 62
33 62 4 0 63 -68 131 -150z m-500 -15 c175 -205 173 -203 161 -228 -6 -12 -25
-58 -43 -102 -17 -44 -39 -98 -48 -120 -10 -22 -26 -59 -36 -82 -10 -24 -21
-43 -24 -42 -3 0 -26 24 -50 52 -24 29 -90 102 -147 164 -57 61 -104 115 -104
120 0 9 137 371 147 386 6 10 19 -3 144 -148z m-569 -37 c112 -92 228 -200
228 -212 0 -15 -139 -378 -148 -388 -4 -4 -41 23 -82 59 -81 71 -221 178 -242
185 -10 4 -8 17 9 59 12 30 45 119 73 198 28 79 54 150 57 157 7 18 25 8 105
-58z m-558 -243 c98 -32 256 -111 256 -129 0 -7 -16 -58 -36 -112 -114 -315
-117 -321 -132 -298 -14 21 -226 102 -309 119 -18 4 -33 12 -33 19 0 7 24 82
54 167 29 85 61 178 70 207 21 61 23 62 130 27z m2254 -309 c74 -47 198 -104
272 -126 41 -12 76 -23 78 -25 3 -3 -146 -296 -157 -308 -9 -9 -97 13 -180 44
-69 25 -211 100 -211 111 0 4 30 70 66 145 36 76 70 148 75 161 11 27 11 27
57 -2z m-368 -227 c41 -32 85 -66 97 -76 l22 -18 -23 -50 c-13 -27 -46 -98
-74 -156 -28 -59 -54 -109 -59 -112 -12 -7 -118 67 -237 166 l-105 88 25 57
c14 31 41 91 59 132 18 42 42 95 54 118 l22 43 72 -67 c40 -36 106 -93 147
-125z m1070 -246 c0 -5 -10 -24 -21 -43 -12 -19 -44 -78 -72 -130 -27 -52 -54
-100 -61 -106 -27 -28 -181 -56 -333 -61 -86 -3 -153 -2 -154 3 0 5 35 77 77
159 l77 150 76 -6 c92 -7 256 6 331 25 67 17 80 18 80 9z m-830 -332 c41 -11
86 -22 100 -25 14 -2 24 -9 22 -17 -2 -7 -36 -78 -75 -157 l-71 -144 -46 6
c-84 12 -145 29 -239 67 -52 21 -96 41 -99 43 -6 6 15 56 92 218 l55 117 93
-43 c51 -25 127 -53 168 -65z"/>
<path d="M12635 7420 c-78 -5 -258 -22 -401 -39 -496 -59 -592 -61 -872 -20
-415 61 -1049 14 -1298 -96 -73 -32 -131 -87 -145 -137 -9 -34 -6 -47 25 -117
20 -43 43 -114 52 -157 17 -80 17 -88 -2 -434 -7 -130 3 -188 56 -334 59 -164
70 -248 80 -606 9 -337 13 -365 64 -544 33 -114 64 -294 80 -460 l12 -131 22
73 c13 40 45 117 73 172 76 149 170 230 318 274 87 26 414 19 514 -10 14 -4
17 1 17 34 0 98 81 120 208 57 46 -23 87 -54 116 -85 50 -57 122 -177 156
-262 13 -32 25 -56 27 -55 1 2 19 57 39 123 20 65 45 135 54 154 28 54 83 101
142 121 40 13 54 23 58 41 7 34 32 65 66 83 35 18 286 21 348 4 21 -6 57 -28
80 -48 39 -37 44 -38 132 -44 50 -4 123 -10 162 -13 l72 -7 0 28 c0 16 -11 42
-24 60 -31 40 -50 109 -42 155 5 35 4 37 -31 48 -34 10 -41 9 -75 -13 -21 -14
-40 -25 -43 -25 -3 0 -5 24 -5 53 0 50 -2 53 -40 77 -22 14 -40 27 -40 30 0 4
22 12 49 19 48 12 51 15 67 63 l16 50 32 -46 c29 -42 34 -45 74 -46 l42 0 -20
-40 c-36 -71 -22 -111 21 -57 23 28 27 45 33 142 10 152 19 182 72 231 l45 42
-28 20 -28 21 49 13 c45 12 51 17 71 63 l22 49 28 -42 c26 -40 30 -42 76 -42
27 0 49 -3 49 -6 0 -3 -9 -19 -21 -35 l-21 -30 203 1 203 2 38 26 c21 15 38
30 38 35 0 4 -21 7 -48 7 -47 0 -83 17 -109 50 -22 28 -26 97 -9 149 21 64 21
60 -15 101 -56 63 -60 79 -64 255 -3 90 -9 185 -15 211 -28 124 -104 194 -235
219 l-60 11 105 35 105 36 6 69 c8 89 8 291 0 374 l-6 65 -50 7 c-182 26 -479
39 -670 28z m375 -248 c11 -17 27 -23 62 -24 27 -2 48 -7 48 -12 0 -5 -12 -24
-26 -43 -25 -33 -25 -35 -11 -83 8 -28 12 -50 9 -50 -4 0 -26 7 -49 16 -42 16
-43 16 -83 -10 -22 -14 -42 -26 -45 -26 -3 0 -5 24 -5 53 -1 48 -3 54 -35 77
-19 14 -35 28 -35 31 0 3 21 12 47 20 44 14 48 18 62 63 16 52 17 52 61 -12z
m-714 -2 c25 -38 30 -40 75 -40 54 0 60 -7 28 -36 -36 -32 -40 -49 -24 -95 8
-23 13 -44 10 -47 -2 -3 -25 3 -49 12 l-45 17 -35 -26 c-19 -15 -39 -24 -44
-21 -5 3 -7 25 -5 49 5 41 3 44 -36 72 -23 15 -38 31 -34 35 4 4 27 12 51 19
23 6 42 16 42 22 0 14 28 79 34 79 3 0 18 -18 32 -40z m-912 -40 c26 -39 28
-40 83 -40 l57 0 -25 -27 c-49 -54 -49 -56 -34 -106 16 -52 13 -54 -44 -31
-39 15 -41 15 -73 -9 -59 -44 -60 -44 -53 10 6 54 4 59 -43 92 -18 12 -30 26
-27 31 2 4 24 13 48 19 41 10 45 14 57 56 7 25 16 45 20 45 4 0 19 -18 34 -40z
m-909 -131 c22 -1 46 -1 53 0 19 3 14 -12 -17 -50 -30 -36 -30 -36 -15 -84 8
-27 12 -50 11 -52 -2 -2 -24 4 -49 13 -44 17 -45 17 -84 -9 -21 -15 -43 -27
-47 -27 -5 0 -6 21 -2 47 7 47 6 48 -37 84 l-43 37 49 13 c49 12 52 16 80 94
6 17 10 14 34 -23 24 -37 31 -42 67 -43z m1463 -179 c28 0 52 -3 52 -7 0 -5
-14 -25 -29 -46 -26 -34 -28 -42 -19 -70 23 -74 23 -71 2 -62 -69 29 -90 29
-126 2 -19 -15 -38 -27 -42 -27 -3 0 -4 21 0 47 6 46 5 48 -37 84 l-44 37 48
13 c35 8 51 18 58 35 5 13 14 36 20 51 l10 27 27 -42 c26 -40 29 -42 80 -42z
m-1025 -10 c27 -38 31 -40 78 -40 l50 0 -32 -44 -31 -45 15 -45 c9 -25 12 -46
8 -46 -5 0 -28 7 -52 15 -43 15 -43 15 -87 -16 l-43 -31 2 57 c2 43 -1 59 -13
66 -8 4 -26 17 -39 28 -23 19 -23 20 -4 27 74 26 81 32 95 73 7 22 16 41 19
41 3 0 19 -18 34 -40z m1763 -10 c26 -38 29 -40 80 -40 30 0 54 -3 54 -6 0 -3
-14 -24 -32 -46 l-31 -40 16 -46 c10 -25 15 -47 13 -49 -2 -3 -26 3 -53 13
l-50 18 -35 -27 c-19 -15 -38 -27 -41 -27 -4 0 -7 24 -7 53 0 50 -2 53 -42 82
l-42 29 49 14 c56 16 61 21 75 75 6 20 13 37 15 37 3 0 17 -18 31 -40z m-1282
-282 c25 -35 31 -38 77 -38 l50 0 -32 -40 -33 -40 16 -50 c9 -28 13 -50 8 -50
-4 0 -27 7 -50 15 -42 15 -45 15 -82 -10 -20 -14 -40 -25 -43 -25 -3 0 -5 22
-5 49 0 45 -3 53 -35 77 -19 14 -35 30 -35 33 0 4 21 14 47 22 44 13 48 17 62
62 8 26 17 44 21 40 3 -5 18 -25 34 -45z m881 -18 c24 -38 26 -39 75 -35 56 5
65 -8 29 -41 -35 -32 -39 -48 -24 -97 16 -52 13 -54 -44 -31 -37 15 -40 14
-76 -10 -21 -14 -42 -26 -46 -26 -5 0 -9 22 -9 49 0 45 -3 53 -35 77 -19 14
-33 30 -30 34 3 4 25 13 49 19 42 10 45 13 57 60 7 28 16 48 21 45 5 -3 20
-23 33 -44z m785 -60 c23 -38 26 -40 77 -40 61 0 65 -9 24 -56 -29 -33 -29
-33 -15 -80 8 -26 13 -49 11 -51 -2 -1 -24 4 -49 13 -45 15 -47 15 -87 -10
-22 -14 -43 -26 -47 -26 -3 0 -4 23 -2 51 3 50 2 52 -40 82 l-43 31 49 14 c40
11 52 20 66 48 9 19 16 41 16 49 0 25 14 16 40 -25z m-2423 -130 l54 0 -32
-40 c-31 -38 -31 -40 -20 -86 7 -25 10 -48 8 -50 -2 -2 -25 3 -50 12 l-47 16
-40 -32 -40 -32 0 55 c0 51 -3 57 -35 81 -19 15 -35 31 -35 35 0 5 20 14 44
20 42 10 45 14 61 62 l17 51 30 -46 c30 -45 31 -46 85 -46z m1254 -198 c14
-24 25 -30 68 -36 l53 -7 -36 -39 c-32 -35 -34 -42 -25 -72 18 -65 15 -69 -36
-47 l-46 20 -46 -25 -46 -26 6 54 c5 53 4 56 -29 81 -35 27 -44 45 -21 45 6 0
29 5 49 10 31 9 39 18 54 56 19 50 20 49 55 -14z m758 -31 c20 -39 42 -51 94
-51 35 0 34 -9 -4 -46 -29 -27 -31 -33 -26 -81 3 -29 3 -53 1 -53 -3 0 -22 9
-43 20 l-39 19 -47 -25 -48 -25 6 54 c5 52 4 54 -29 81 -19 15 -34 31 -34 36
0 5 21 12 46 16 42 6 47 10 65 50 10 24 23 44 28 44 6 0 19 -17 30 -39z
m-1635 -21 c25 -38 29 -40 76 -40 28 0 50 -2 50 -6 0 -3 -11 -22 -25 -42 -28
-42 -29 -52 -11 -104 8 -21 11 -38 7 -38 -3 0 -27 7 -52 16 -46 17 -46 17 -85
-10 -21 -14 -41 -26 -45 -26 -3 0 -4 24 -2 53 4 52 4 52 -39 82 l-43 30 52 15
c39 11 53 20 58 37 8 32 24 73 28 73 3 0 16 -18 31 -40z m482 -290 c24 -36 30
-39 76 -42 l50 -3 -30 -40 c-28 -39 -29 -42 -16 -85 7 -24 11 -46 9 -49 -3 -2
-25 4 -49 13 -45 17 -46 17 -79 -8 -48 -37 -55 -33 -49 22 4 48 3 49 -38 80
l-43 31 27 11 c15 5 38 13 52 16 19 5 27 16 35 50 6 24 15 44 20 44 5 0 20
-18 35 -40z m-890 -52 c4 -14 17 -18 60 -18 62 0 66 -8 28 -53 -26 -31 -27
-49 -8 -114 l6 -22 -50 16 c-50 16 -51 16 -90 -10 -22 -14 -43 -23 -46 -20 -3
4 -6 28 -6 54 0 42 -4 50 -37 77 l-38 31 49 13 c34 9 51 20 57 35 5 13 14 35
20 50 l10 28 19 -25 c11 -14 22 -33 26 -42z m1649 -8 c26 -37 31 -40 76 -40
56 0 60 -9 24 -52 -29 -34 -30 -42 -10 -97 12 -35 12 -41 0 -41 -8 0 -16 4
-19 9 -3 5 -22 12 -41 15 -28 6 -41 2 -69 -19 -18 -14 -36 -25 -39 -25 -4 0
-7 24 -7 53 0 50 -2 53 -42 82 l-42 29 53 16 c52 15 55 17 68 63 7 26 15 47
17 47 2 0 16 -18 31 -40z m-1099 -342 c12 -23 21 -28 53 -28 70 0 75 -7 42
-52 -29 -39 -29 -41 -16 -86 8 -25 13 -47 11 -49 -1 -2 -23 4 -49 14 -45 17
-45 17 -86 -10 -22 -15 -43 -27 -45 -27 -3 0 -4 23 -4 51 1 28 -3 54 -9 57
-27 19 -66 53 -62 56 2 2 24 10 49 18 40 13 46 19 59 61 16 51 28 50 57 -5z
m697 -69 c16 -22 36 -39 45 -38 37 3 72 -2 72 -10 0 -5 -12 -24 -27 -41 -26
-32 -26 -32 -11 -81 9 -27 13 -49 8 -49 -4 0 -27 7 -50 15 -41 15 -43 14 -86
-15 l-44 -29 0 57 c0 54 -2 58 -35 81 -19 13 -35 27 -35 31 0 3 21 13 47 21
42 13 48 18 61 57 7 23 17 42 20 42 4 0 20 -19 35 -41z m-1199 -201 c6 -4 30
-8 54 -8 23 0 42 -3 42 -7 -1 -5 -14 -23 -29 -41 -29 -34 -29 -34 -14 -79 8
-24 13 -46 11 -49 -3 -2 -25 3 -51 12 -46 15 -47 15 -82 -12 -19 -15 -39 -24
-42 -20 -4 4 -6 26 -4 50 2 40 0 45 -39 74 -45 33 -44 35 15 51 37 10 43 16
59 61 l18 51 26 -38 c14 -21 30 -41 36 -45z"/>
<path d="M13389 7371 c0 -3 0 -114 0 -246 l0 -240 48 -2 c635 -27 632 -27 826
-8 143 14 229 17 355 12 361 -14 1026 -92 1841 -217 179 -27 326 -48 328 -46
5 5 -441 150 -602 195 -375 106 -910 223 -1243 272 -120 18 -149 25 -130 32
28 11 336 15 433 5 l70 -7 -40 15 c-64 24 -349 91 -480 114 -226 39 -343 49
-930 80 -195 11 -357 25 -432 39 -24 5 -43 6 -44 2z"/>
<path d="M13460 6654 c0 -5 5 -29 11 -52 5 -24 11 -115 12 -202 1 -88 5 -161
8 -164 2 -3 94 0 204 6 110 6 520 11 910 12 586 0 752 -3 950 -17 411 -30 766
-74 1120 -137 94 -17 208 -37 255 -46 47 -8 102 -19 124 -25 60 -16 51 -6 -22
25 -80 34 -230 112 -298 155 l-49 31 60 -5 c103 -10 385 -56 505 -82 63 -14
133 -29 155 -33 55 -10 271 -72 450 -129 134 -43 524 -193 550 -211 13 -9 45
-20 45 -16 0 6 -170 106 -299 176 -169 92 -391 194 -546 251 -244 91 -509 167
-739 214 -363 74 -1143 195 -1486 230 -218 23 -556 30 -725 16 -327 -27 -881
-24 -1142 6 -29 3 -53 2 -53 -3z"/>
<path d="M13665 6001 l-60 -6 -3 -44 c-5 -69 -12 -67 206 -70 l92 -1 0 -59 0
-59 -53 -4 c-55 -4 -125 -34 -163 -70 -20 -18 -43 -20 -328 -26 l-306 -7 -27
-27 c-30 -30 -41 -95 -42 -235 -1 -65 -4 -76 -30 -105 -40 -46 -51 -71 -51
-113 0 -42 12 -69 48 -107 25 -27 25 -29 15 -108 -6 -45 -13 -83 -16 -86 -3
-3 -63 2 -134 10 -71 9 -155 16 -186 16 -64 0 -117 18 -138 47 -35 48 -55 53
-214 53 -104 0 -155 -4 -163 -12 -7 -7 -12 -31 -12 -54 l0 -41 -60 -12 c-138
-27 -180 -114 -225 -463 l-6 -48 -48 0 c-27 0 -62 -3 -78 -6 l-30 -6 -7 84
c-19 234 -144 422 -304 459 -42 9 -48 -3 -19 -38 30 -35 62 -102 53 -110 -3
-4 -41 1 -84 10 -141 30 -245 40 -402 41 l-155 1 -75 -37 c-41 -20 -96 -56
-121 -80 -80 -77 -154 -242 -195 -433 -18 -87 -27 -113 -45 -125 -12 -8 -39
-32 -60 -52 -35 -35 -37 -41 -43 -120 -3 -46 -8 -188 -11 -317 -3 -129 -7
-237 -10 -240 -2 -4 -5 -87 -6 -185 -2 -166 -1 -180 17 -193 10 -8 28 -12 39
-9 11 3 43 8 70 11 l51 7 17 -56 c24 -76 72 -135 137 -171 l55 -30 353 -3
c400 -3 420 -1 485 66 39 40 83 127 102 201 l11 46 270 3 c263 2 272 2 424
-28 261 -50 317 -55 610 -54 302 0 471 15 708 62 167 33 259 34 727 9 182 -9
407 -20 500 -23 94 -4 176 -11 183 -17 6 -5 12 -18 12 -28 0 -34 52 -129 88
-160 73 -65 68 -64 497 -64 387 0 390 0 433 23 53 28 96 87 113 153 l13 51
421 -7 c419 -8 421 -8 470 14 111 49 139 101 165 302 52 418 51 884 -4 1277
-25 180 -80 243 -246 277 -140 28 -282 40 -498 40 -122 0 -222 2 -222 4 0 2
11 24 25 47 14 24 42 81 61 126 145 337 121 493 -86 559 -55 18 -105 22 -330
29 -146 5 -425 9 -620 9 l-355 1 -85 -50 c-47 -27 -90 -50 -95 -50 -6 0 -34
18 -64 40 l-53 40 -135 0 -135 0 -63 35 c-35 20 -92 42 -127 49 l-63 13 -3 56
-3 57 139 0 c113 0 142 3 152 15 14 16 18 91 6 103 -9 9 -588 11 -671 3z m414
-316 c165 -39 286 -138 366 -298 25 -49 44 -92 42 -94 -2 -2 -40 8 -83 21 -43
14 -98 28 -120 32 -55 8 -57 11 -72 69 -18 73 -70 173 -99 192 -19 13 -58 17
-182 21 l-156 5 -34 -29 c-42 -35 -70 -96 -71 -151 0 -32 -4 -43 -15 -43 -11
0 -15 12 -15 50 0 86 63 184 143 224 42 21 209 21 296 1z m1061 -182 c26 -33
20 -68 -16 -101 -23 -20 -25 -25 -12 -40 31 -36 31 -42 -6 -42 -28 0 -38 6
-53 30 -14 25 -24 30 -56 30 -34 0 -40 -4 -50 -30 -8 -22 -18 -30 -36 -30 -23
0 -23 2 -17 47 3 25 8 48 10 51 3 2 41 4 85 4 85 0 119 13 108 41 -5 13 -24
17 -92 19 l-85 3 15 23 c15 20 24 22 100 22 79 0 85 -1 105 -27z m280 -45 c18
-40 39 -88 46 -105 l14 -33 -95 0 -96 0 18 25 c13 17 28 24 51 25 37 0 37 1
13 55 l-17 39 -54 -72 c-45 -60 -59 -72 -83 -72 -33 0 -36 -5 55 118 88 120
102 121 148 20z m311 48 c-18 -19 -35 -25 -88 -28 -67 -4 -93 -20 -93 -57 1
-36 19 -46 95 -51 l76 -5 -16 -22 c-14 -20 -25 -23 -86 -23 -61 0 -73 3 -94
25 -19 18 -25 35 -25 67 0 84 49 117 174 118 l79 0 -22 -24z m243 -1 c-15 -22
-23 -25 -80 -25 -50 0 -64 -3 -64 -15 0 -12 15 -15 71 -15 l71 0 -14 -22 c-13
-19 -26 -24 -77 -26 -52 -3 -62 -6 -59 -20 3 -14 16 -17 76 -17 39 0 72 -2 72
-4 0 -3 -7 -13 -17 -23 -13 -15 -32 -18 -105 -18 -48 0 -88 2 -88 4 0 12 21
164 25 184 5 21 10 22 105 22 l100 0 -16 -25z m-2079 -150 c206 -21 499 -75
594 -109 101 -37 221 -129 290 -225 25 -34 48 -61 51 -61 4 0 -6 37 -21 82
-16 45 -29 83 -29 85 0 2 206 2 458 1 l457 -2 115 31 c63 17 146 43 184 58 37
15 82 28 100 29 29 1 31 -2 34 -34 4 -53 -51 -178 -175 -392 -25 -43 -48 -80
-53 -83 -4 -3 -28 4 -52 15 -121 53 -362 67 -511 29 -92 -23 -177 -63 -248
-115 -105 -77 -164 -175 -203 -339 -41 -169 -51 -273 -51 -542 0 -248 0 -253
-20 -247 -11 4 -21 7 -22 8 -1 1 -3 38 -4 83 l-2 81 -201 6 c-110 4 -403 11
-651 17 -247 5 -451 12 -453 14 -2 2 7 15 21 29 25 24 32 26 126 26 96 0 105
2 263 59 90 33 305 109 478 171 173 61 340 121 371 132 l57 20 5 51 c3 29 4
53 3 54 -2 3 -569 37 -824 49 -127 7 -133 8 -130 28 6 39 41 45 198 35 447
-28 632 -39 695 -45 l70 -5 23 74 c13 40 34 90 48 111 l25 37 -368 -3 -368 -3
-117 -57 c-94 -46 -127 -58 -165 -58 -69 0 -122 -39 -123 -91 0 -18 -21 -50
-66 -100 -84 -93 -134 -154 -134 -163 0 -3 52 -6 115 -6 110 0 116 -1 124 -22
4 -12 5 -34 1 -48 l-6 -25 -167 -3 -166 -2 -53 -67 c-82 -103 -231 -307 -309
-423 -98 -145 -91 -140 -213 -139 -55 1 -144 4 -196 8 -88 6 -95 8 -98 28 -7
45 97 426 185 678 66 192 76 218 132 353 67 161 83 191 121 227 l31 30 240 3
c131 2 239 4 240 5 0 1 8 90 18 197 l17 195 -26 22 c-14 13 -50 35 -80 50 -48
25 -68 28 -165 31 -120 3 -201 -12 -219 -40 -8 -13 -6 -25 8 -49 16 -28 18
-44 12 -127 -15 -208 -15 -210 -50 -216 -44 -8 -105 -62 -126 -111 -23 -54
-26 -55 -361 -55 -260 0 -267 0 -300 -23 -37 -25 -58 -70 -58 -128 l-1 -37
-62 -6 c-35 -3 -102 -8 -149 -12 l-86 -6 -7 33 c-18 91 37 184 135 226 14 6
227 43 475 83 247 40 452 75 456 79 4 3 14 61 24 129 l16 122 -28 54 c-34 65
-27 104 26 147 118 96 510 142 875 104z m-368 -286 c7 -6 13 -24 13 -39 0 -27
-2 -28 -62 -32 -35 -3 -64 -4 -66 -3 -2 2 7 24 20 50 21 43 25 46 52 41 16 -3
35 -11 43 -17z m-7 -259 c0 -50 -17 -59 -92 -48 l-68 10 0 37 c0 21 2 40 4 42
3 2 39 0 80 -5 73 -10 76 -11 76 -36z m-2049 -87 c46 -74 69 -161 69 -265 0
-76 -4 -96 -25 -136 -30 -57 -31 -102 -4 -162 18 -39 20 -57 14 -140 -10 -150
-23 -218 -51 -260 -28 -42 -34 -103 -15 -153 6 -16 11 -30 11 -33 0 -2 -27 -4
-60 -4 -69 0 -63 -15 -60 150 3 174 14 269 66 579 34 207 42 340 25 429 -5 23
-7 42 -4 42 2 0 17 -21 34 -47z m5539 -112 c57 -212 69 -1021 19 -1310 -23
-138 -44 -172 -68 -113 -12 31 -30 120 -25 125 12 12 35 298 40 497 6 227 -10
528 -35 658 -14 73 21 204 50 186 5 -2 13 -22 19 -43z m-5644 -49 c-3 -27 -13
-75 -22 -108 -73 -277 -105 -520 -112 -852 l-2 -73 -27 3 -28 3 2 175 c3 239
30 439 84 635 28 100 95 265 107 265 2 0 2 -22 -2 -48z m4586 -39 c84 -96 131
-380 131 -803 1 -419 -40 -665 -118 -716 -25 -16 -27 -16 -51 2 -14 10 -33 31
-41 46 -16 25 -15 27 9 57 53 62 82 207 100 492 17 282 -16 650 -67 748 -25
49 -55 73 -82 66 -22 -5 -24 -3 -18 17 12 38 37 82 54 95 23 18 66 16 83 -4z
m-3122 -148 c0 -2 -5 -15 -11 -28 -10 -21 -20 -25 -77 -30 -37 -3 -263 -20
-503 -38 l-437 -34 -6 -42 c-3 -23 -3 -48 -1 -55 3 -7 151 -98 328 -201 l322
-188 86 6 87 7 -5 -26 c-3 -15 -9 -29 -14 -32 -9 -5 -971 -74 -1041 -74 -34 0
-38 3 -38 25 0 30 -2 30 300 50 129 9 293 20 364 25 72 6 136 10 144 10 25 0
2 18 -86 67 -48 27 -179 103 -292 168 -113 65 -225 129 -250 143 -117 65 -140
83 -140 113 0 46 3 47 440 79 228 16 496 36 595 44 220 16 235 17 235 11z
m2980 -237 c0 -7 9 -204 20 -437 11 -243 15 -431 10 -440 -4 -9 -70 -50 -147
-91 l-138 -75 -85 1 c-47 0 -123 6 -170 12 -497 67 -1004 98 -1342 82 -243
-12 -347 -22 -549 -55 -399 -65 -834 -59 -1244 16 -279 51 -465 69 -726 69
-283 0 -688 -35 -1002 -86 -87 -14 -165 -23 -174 -20 -13 5 -14 24 -9 134 3
70 8 183 11 252 3 69 7 157 10 195 2 39 7 127 11 198 5 102 10 132 24 150 15
18 19 19 23 7 3 -8 8 -187 10 -398 3 -211 7 -385 9 -387 4 -5 122 14 223 35
131 27 376 95 525 145 146 49 255 63 495 63 146 0 274 6 380 17 177 20 550 24
567 7 7 -7 5 -41 -6 -105 -9 -52 -16 -104 -16 -115 0 -41 42 -53 222 -67 182
-13 240 -8 315 25 61 27 80 45 160 152 70 95 70 95 197 117 88 16 277 13 386
-6 73 -12 171 -17 420 -18 368 -2 413 -7 695 -80 164 -43 301 -86 544 -174 63
-22 116 -39 117 -38 1 1 7 177 12 390 9 326 14 392 27 415 16 26 156 119 183
121 6 1 12 -5 12 -11z m-3090 -54 c0 -9 -5 -34 -12 -56 l-11 -39 -131 3 -131
3 -3 39 c-6 67 -8 66 148 66 123 0 140 -2 140 -16z m-1003 -43 l68 -39 3 -115
3 -115 -86 -7 c-47 -4 -88 -6 -90 -3 -2 2 2 58 10 123 8 66 15 137 15 158 0
20 2 37 4 37 2 0 35 -17 73 -39z m-304 -891 c12 -13 -17 -132 -46 -190 -34
-68 -61 -85 -93 -59 -33 28 -64 109 -71 185 l-6 76 106 -4 c58 -2 108 -6 110
-8z"/>
<path d="M14015 5189 c-44 -4 -116 -17 -160 -29 -83 -21 -205 -73 -205 -87 0
-16 -40 -329 -46 -355 l-6 -28 184 -1 183 0 -56 -19 c-177 -58 -334 -193 -471
-405 -131 -202 -376 -685 -347 -685 5 0 9 4 9 8 0 12 211 351 287 462 162 235
315 395 450 472 94 54 136 71 245 99 78 20 105 21 473 20 l391 -2 49 46 c101
94 231 156 370 176 63 10 75 14 75 31 0 10 -11 30 -25 43 -24 25 -26 25 -207
25 -201 0 -229 -7 -299 -67 -19 -17 -53 -40 -77 -52 -55 -28 -68 -21 -125 67
-109 166 -274 259 -489 277 -35 3 -76 7 -93 9 -16 1 -66 -1 -110 -5z m-41
-116 c37 -79 56 -156 56 -230 0 -71 8 -65 -110 -83 -36 -5 -109 -10 -163 -10
l-98 0 3 38 3 37 65 2 c116 3 149 11 156 38 9 36 -13 91 -49 121 -29 24 -36
26 -94 20 -59 -6 -63 -5 -63 13 0 12 10 27 23 35 30 19 169 63 238 75 3 1 18
-25 33 -56z m349 31 c79 -20 121 -42 180 -94 47 -41 132 -152 139 -179 2 -12
-36 -14 -232 -13 -129 1 -252 2 -272 2 -33 0 -38 3 -38 23 0 12 -7 54 -16 92
-8 39 -17 81 -20 95 l-6 25 76 -3 c84 -5 106 5 106 44 0 28 4 29 83 8z"/>
<path d="M14535 4035 c-126 -47 -277 -101 -335 -121 -175 -60 -294 -105 -305
-115 -5 -5 58 -10 160 -11 94 0 181 -2 195 -3 14 -1 139 -3 279 -6 l253 -4 5
173 c4 142 3 172 -8 171 -8 0 -117 -38 -244 -84z"/>
<path d="M14478 5963 c-54 -4 -58 -6 -58 -29 0 -38 -25 -88 -53 -106 -14 -10
-51 -18 -88 -20 l-64 -3 52 -27 c49 -26 60 -28 180 -28 118 0 131 -2 168 -25
83 -50 77 -50 136 -12 30 18 69 39 88 45 72 25 1209 5 1316 -23 133 -35 227
-107 258 -198 l14 -42 124 -12 c199 -20 447 -52 689 -89 543 -83 866 -152
1415 -304 61 -17 126 -33 145 -36 l35 -5 -45 25 c-257 145 -537 258 -834 336
-59 16 -110 31 -113 33 -6 7 168 27 238 27 l64 1 -47 18 c-107 42 -548 161
-783 212 -604 130 -1183 208 -1855 249 -178 11 -888 21 -982 13z"/>
<path d="M4776 5454 c-8 -22 -7 -77 2 -91 6 -9 56 -15 160 -20 l152 -6 0 -57
0 -57 -54 -7 c-65 -7 -107 -24 -164 -66 l-43 -31 -319 -7 c-318 -7 -319 -7
-344 -31 -35 -33 -43 -67 -51 -213 -6 -124 -7 -128 -37 -160 -36 -39 -48 -67
-48 -114 0 -43 21 -86 55 -112 l26 -21 -12 -88 c-6 -48 -15 -91 -18 -94 -3 -4
-44 -1 -91 7 -47 7 -139 16 -205 20 -128 7 -154 15 -198 63 -41 44 -91 54
-246 48 -148 -5 -151 -6 -151 -74 0 -39 -2 -42 -32 -48 -86 -17 -128 -37 -158
-76 -50 -63 -88 -195 -109 -378 -5 -45 -11 -84 -12 -85 -2 -2 -41 -7 -86 -10
l-83 -7 0 58 c-1 120 -60 295 -130 382 -49 60 -132 117 -187 127 -46 9 -50 0
-21 -38 23 -31 62 -117 56 -123 -2 -2 -30 3 -63 11 -176 42 -450 63 -578 45
-161 -23 -275 -112 -354 -277 -25 -53 -52 -118 -60 -147 -31 -111 -53 -203
-53 -222 0 -22 -40 -68 -85 -99 -53 -36 -57 -60 -71 -471 -18 -544 -19 -638
-10 -653 7 -11 28 -12 97 -7 83 7 89 6 89 -11 0 -32 46 -120 84 -162 20 -22
60 -50 89 -63 51 -24 57 -24 421 -27 412 -3 434 0 507 65 37 33 80 120 110
221 l12 42 121 1 c67 1 193 3 281 5 128 3 179 0 255 -15 169 -34 264 -50 365
-63 132 -16 558 -16 715 0 141 14 402 55 499 78 59 13 112 12 595 -10 861 -41
786 -35 786 -57 0 -31 31 -101 67 -151 24 -33 51 -56 91 -75 l57 -28 405 0
c398 0 406 0 446 22 62 33 96 75 124 149 l25 67 180 -1 c99 -1 293 -5 430 -8
278 -7 308 -3 377 49 51 39 84 86 98 138 13 49 36 229 51 404 33 388 -3 1109
-62 1232 -29 61 -97 119 -161 137 -140 41 -520 73 -720 60 -60 -4 -108 -4
-108 -1 0 3 18 38 39 79 87 160 151 362 151 473 0 98 -56 174 -159 215 -92 36
-211 42 -831 44 l-595 1 -76 -47 c-42 -27 -86 -48 -97 -48 -11 0 -44 18 -73
40 l-53 40 -137 0 -137 0 -79 40 c-43 23 -106 46 -140 52 l-63 12 0 63 0 62
157 3 157 3 7 28 c4 15 4 39 0 55 l-7 27 -381 3 c-341 2 -381 1 -387 -14z
m562 -337 c144 -50 250 -148 327 -301 24 -49 43 -91 41 -94 -2 -2 -39 8 -83
21 -43 14 -104 30 -135 37 -56 11 -58 12 -68 53 -19 74 -22 81 -55 147 -19 38
-44 71 -58 79 -18 9 -75 14 -195 15 -168 1 -170 1 -197 -24 -37 -33 -75 -116
-75 -161 0 -24 -5 -39 -15 -43 -12 -4 -15 5 -15 47 0 77 45 167 105 209 64 46
74 48 220 44 109 -2 142 -7 203 -29z m1056 -166 c25 -21 21 -77 -9 -107 -30
-30 -31 -34 -4 -68 l20 -26 -40 0 c-35 0 -43 4 -56 30 -14 27 -20 30 -65 30
-46 0 -49 -2 -52 -27 -2 -22 -9 -29 -32 -31 -28 -4 -29 -3 -23 35 4 21 7 46 7
56 0 15 11 17 99 17 92 0 100 2 106 21 4 12 3 25 -2 30 -4 4 -48 9 -97 11
l-88 3 23 25 c23 24 28 25 110 20 51 -3 93 -11 103 -19z m254 21 c10 -7 102
-201 102 -217 0 -3 -43 -5 -95 -5 -52 0 -95 3 -95 8 1 23 30 42 65 42 31 0 36
3 30 18 -4 9 -12 29 -17 45 -5 15 -14 27 -18 27 -5 0 -33 -31 -62 -70 -46 -61
-57 -69 -86 -70 l-33 0 28 38 c146 195 152 202 181 184z m634 -14 c-8 -30 -26
-38 -87 -38 -47 0 -64 -4 -69 -15 -4 -13 7 -15 69 -15 41 0 75 -4 75 -8 0 -23
-39 -41 -95 -44 -47 -2 -61 -7 -63 -20 -3 -15 8 -18 78 -20 l80 -3 -15 -22
c-15 -21 -24 -23 -114 -23 l-97 0 13 78 c26 155 19 141 66 144 87 6 162 0 159
-14z m-264 -10 c-12 -18 -26 -24 -64 -26 -90 -4 -124 -22 -124 -64 0 -42 28
-58 102 -58 37 0 68 -3 68 -7 0 -3 -7 -15 -17 -25 -26 -29 -143 -26 -178 5
-38 32 -44 91 -13 137 33 49 61 60 157 60 l83 0 -14 -22z m-1918 -162 c298
-34 583 -95 680 -147 80 -43 173 -125 237 -210 29 -39 53 -64 53 -57 0 7 -12
45 -25 83 -14 39 -25 76 -25 83 0 10 89 11 428 7 528 -6 586 0 849 96 62 23
120 39 128 35 46 -17 -6 -159 -162 -439 -45 -80 -69 -115 -77 -109 -12 10 -56
26 -131 49 -79 23 -343 29 -430 9 -191 -44 -349 -148 -425 -281 -87 -153 -135
-472 -129 -851 4 -167 2 -191 -11 -186 -30 10 -40 36 -40 109 l0 73 -57 1
c-288 6 -1258 30 -1292 32 l-35 2 26 30 c26 30 27 30 135 31 85 1 121 6 168
24 33 12 78 28 100 35 22 7 128 45 235 85 107 39 240 86 295 104 55 19 141 50
190 69 50 19 120 45 158 57 84 27 97 40 97 95 0 42 -2 44 -32 49 -18 3 -82 7
-143 10 -185 8 -830 47 -833 51 -2 2 -1 12 2 23 12 37 41 40 266 26 403 -25
635 -38 694 -38 l59 -1 18 64 c10 35 32 84 48 110 l30 46 -357 3 c-235 2 -372
-1 -402 -8 -25 -6 -95 -36 -156 -66 -86 -42 -121 -54 -158 -54 -75 0 -125 -37
-126 -92 0 -21 -28 -59 -109 -150 l-109 -123 121 -5 c119 -5 122 -6 136 -32
12 -21 13 -31 3 -52 l-12 -26 -174 0 c-169 0 -174 -1 -189 -22 -8 -13 -47 -63
-86 -113 -93 -118 -331 -450 -331 -463 0 -5 -13 -24 -29 -41 l-28 -30 -204 6
c-218 6 -234 10 -224 57 38 175 111 441 164 601 49 150 151 422 189 506 11 24
32 71 46 104 32 71 49 91 98 116 33 17 61 19 271 19 l234 0 6 53 c15 136 29
347 24 361 -4 9 -34 34 -67 55 -81 53 -159 66 -300 51 -143 -14 -174 -38 -131
-99 18 -25 18 -33 5 -181 -7 -85 -14 -158 -14 -161 0 -4 -15 -10 -33 -13 -46
-9 -112 -68 -136 -120 -18 -41 -21 -43 -72 -49 -30 -4 -169 -7 -309 -7 -140 0
-270 -4 -288 -9 -58 -17 -82 -56 -82 -135 0 -34 -4 -56 -11 -56 -6 0 -76 -5
-156 -11 -164 -13 -163 -13 -163 59 0 81 46 151 125 191 33 16 108 33 253 56
114 19 308 50 432 70 124 20 245 39 268 42 54 7 56 11 78 166 l17 118 -23 31
c-14 18 -25 51 -28 78 -3 38 0 51 22 76 49 59 214 112 408 133 133 14 422 12
558 -3z m-427 -292 c29 -14 32 -20 29 -49 -4 -33 -4 -33 -65 -37 -34 -2 -63
-3 -65 -2 -9 5 42 104 54 104 7 0 28 -7 47 -16z m-33 -250 c40 -6 40 -6 40
-51 l0 -45 -37 6 c-21 3 -60 8 -86 12 -48 6 -49 7 -43 37 3 16 6 36 6 44 0 12
9 13 40 9 22 -3 58 -9 80 -12z m-2084 -184 c14 -30 31 -84 36 -120 13 -84 6
-205 -14 -228 -40 -46 -45 -124 -12 -187 19 -35 20 -129 3 -275 -9 -74 -17
-103 -38 -134 -21 -32 -26 -51 -26 -100 0 -34 4 -71 8 -83 7 -20 4 -21 -50
-25 -32 -2 -62 -2 -67 0 -21 11 15 469 55 680 46 248 58 405 40 531 l-8 54 24
-29 c12 -16 35 -54 49 -84z m5810 -53 c40 -114 64 -568 52 -965 -13 -433 -62
-672 -109 -530 -18 54 -17 149 1 268 23 149 21 810 -3 988 -19 136 -17 188 9
250 17 41 33 38 50 -11z m-5951 -49 c-3 -24 -17 -86 -30 -138 -77 -307 -115
-589 -115 -851 0 -55 -3 -99 -7 -99 -5 0 -19 -3 -32 -7 l-24 -6 6 204 c7 210
30 416 66 575 32 143 116 364 138 364 3 0 2 -19 -2 -42z m4808 -29 c105 -57
167 -382 167 -873 0 -322 -18 -499 -66 -654 -17 -53 -61 -112 -85 -112 -16 0
-89 77 -89 94 0 8 7 16 15 19 82 32 145 527 116 922 -24 331 -77 489 -157 469
-15 -4 -24 -2 -24 5 0 23 50 110 72 125 27 19 24 19 51 5z m-3278 -196 c-4
-16 -8 -29 -10 -31 -3 -4 -994 -82 -1036 -82 -24 0 -27 -4 -33 -52 -5 -37 -3
-55 6 -64 7 -7 108 -67 223 -134 116 -67 241 -140 280 -163 38 -23 74 -44 80
-46 5 -2 28 -16 50 -30 36 -23 48 -25 133 -22 l93 2 -7 -28 c-4 -15 -7 -29 -8
-30 -1 -1 -210 -16 -466 -33 -256 -17 -510 -35 -565 -39 -55 -5 -103 -7 -107
-4 -5 2 -8 17 -8 34 0 27 3 29 38 29 67 -1 832 55 832 60 0 3 -28 22 -62 42
-35 20 -148 85 -253 146 -104 60 -212 122 -240 137 -101 56 -240 137 -252 147
-18 15 -16 63 3 78 15 13 160 26 728 66 131 9 309 22 395 29 86 7 164 13 175
14 15 1 17 -4 11 -26z m3159 -305 c13 -188 38 -820 32 -841 -3 -12 -24 -32
-48 -46 -24 -12 -72 -39 -108 -58 -36 -20 -79 -44 -95 -54 -60 -36 -109 -39
-255 -19 -369 52 -815 89 -1175 97 -367 8 -527 -4 -965 -74 -167 -26 -191 -27
-535 -27 -387 0 -408 1 -740 64 -488 91 -1034 85 -1759 -21 -109 -16 -202 -26
-207 -23 -13 8 -11 134 10 565 14 276 23 393 33 408 34 55 38 24 38 -277 0
-147 3 -330 7 -408 l6 -141 96 18 c232 43 401 87 656 169 199 64 311 79 585
79 147 0 261 5 360 17 150 19 601 27 616 11 4 -4 0 -56 -9 -115 -10 -59 -17
-115 -17 -125 0 -36 73 -55 261 -68 192 -13 221 -10 324 36 47 20 63 36 117
111 102 140 102 141 193 160 116 24 341 24 475 -1 89 -17 155 -20 435 -20 344
-1 377 -4 595 -52 195 -42 572 -160 754 -235 38 -15 70 -27 71 -26 1 2 7 188
14 415 6 226 15 422 20 435 9 24 163 126 193 127 13 1 17 -13 22 -81z m-3264
16 c0 -9 -5 -34 -12 -55 l-11 -39 -128 0 c-70 0 -134 3 -143 6 -10 4 -16 18
-16 39 0 66 -3 65 161 65 131 0 149 -2 149 -16z m-1077 -32 c106 -58 97 -42
97 -174 l0 -116 -37 -6 c-21 -3 -64 -8 -97 -11 l-59 -7 6 29 c3 15 12 92 19
171 7 78 14 142 16 142 2 0 27 -13 55 -28z m-314 -951 c32 -20 -15 -194 -69
-254 -26 -30 -29 -31 -54 -18 -15 8 -37 37 -50 65 -25 54 -52 188 -41 206 8
12 194 13 214 1z"/>
<path d="M5167 4610 c-89 -14 -215 -50 -282 -81 l-60 -27 -23 -179 c-13 -98
-25 -190 -28 -205 l-6 -28 189 -1 c179 0 186 -1 153 -16 -161 -72 -222 -108
-301 -181 -154 -143 -273 -327 -476 -736 -68 -137 -106 -226 -100 -233 3 -2
43 60 91 139 205 339 345 535 485 678 149 152 281 228 476 277 62 15 118 17
488 14 l418 -2 67 63 c37 35 99 80 139 101 80 42 203 77 270 77 32 0 43 4 43
15 0 25 -27 72 -45 79 -9 3 -102 6 -206 6 -181 0 -192 -1 -237 -24 -26 -14
-63 -39 -82 -55 -58 -51 -117 -73 -146 -53 -6 4 -29 35 -51 70 -49 77 -123
156 -182 193 -53 34 -153 73 -241 94 -80 19 -275 27 -353 15z m-3 -119 c35
-68 56 -158 56 -239 0 -59 -3 -72 -17 -76 -62 -18 -355 -37 -368 -24 -4 3 -3
22 0 41 l7 35 100 4 c90 3 102 6 119 27 22 26 18 57 -13 109 -30 50 -69 66
-129 53 -28 -6 -52 -11 -54 -11 -3 0 -5 13 -5 29 0 26 6 30 63 51 75 28 199
59 210 53 4 -2 18 -26 31 -52z m366 33 c116 -26 233 -118 314 -246 l37 -58
-288 0 -288 0 -21 108 c-12 59 -25 115 -29 125 -6 15 1 17 89 17 l96 0 0 35
c0 40 -1 40 90 19z"/>
<path d="M5950 3463 c-19 -9 -102 -39 -185 -68 -136 -48 -281 -99 -599 -212
l-108 -38 123 -6 c68 -4 285 -9 482 -13 l357 -7 0 134 c0 74 3 155 6 181 6 44
6 46 -17 45 -13 0 -40 -8 -59 -16z"/>
<path d="M4850 5281 c0 -4 5 -22 11 -39 l10 -30 50 31 c28 17 52 34 55 39 3 4
-24 8 -60 8 -36 0 -66 -4 -66 -9z"/>
<path d="M5320 5286 c0 -2 23 -19 51 -36 53 -35 63 -33 74 13 l7 27 -66 0
c-36 0 -66 -2 -66 -4z"/>
<path d="M16377 5187 c-8 -18 -18 -45 -22 -58 -4 -13 -19 -46 -32 -73 -28 -55
-20 -71 28 -62 70 13 422 -17 584 -49 39 -8 126 -16 195 -20 348 -16 977 -104
1545 -215 116 -23 244 -48 285 -55 41 -8 117 -23 169 -35 96 -21 138 -23 85
-3 -16 6 -55 21 -88 34 -47 18 -62 20 -77 11 -26 -17 -37 -15 -13 2 18 14 18
15 -6 24 -148 54 -487 163 -631 202 -41 12 -99 28 -129 36 -386 109 -1124 230
-1705 279 -38 3 -93 8 -122 11 -52 5 -52 5 -66 -29z"/>
<path d="M17203 4676 c3 -7 13 -87 22 -177 8 -90 18 -187 21 -214 l5 -51 182
4 c125 2 206 -1 260 -11 42 -7 77 -10 77 -6 0 10 -138 76 -197 93 -29 8 -90
20 -135 27 -97 14 -88 21 58 41 68 9 211 13 454 13 421 -1 543 -11 909 -81 69
-13 147 -24 175 -25 34 0 45 -3 32 -8 -15 -6 -5 -10 39 -19 78 -16 96 -15 65
3 -14 8 -38 14 -53 15 -16 0 -26 4 -23 9 15 23 -405 160 -737 240 -323 79
-875 160 -1086 161 -58 0 -72 -3 -68 -14z"/>
<path d="M17284 4023 c-20 -4 -21 -12 -27 -165 -4 -89 -4 -164 -1 -167 3 -3
65 24 137 61 156 79 191 92 317 114 69 12 130 15 225 12 l130 -5 -90 43 c-99
48 -234 90 -335 104 -63 9 -314 11 -356 3z"/>
<path d="M13626 3010 c-16 -5 -91 -19 -165 -30 -75 -11 -163 -30 -196 -40
-162 -52 -537 -73 -828 -45 -260 25 -430 17 -695 -29 -112 -20 -213 -36 -224
-36 -11 0 -44 -22 -74 -49 -90 -82 -100 -84 -476 -89 l-328 -3 0 -44 c0 -75
52 -239 90 -288 34 -43 160 -58 325 -38 197 25 334 50 725 135 704 153 793
163 1495 176 299 6 543 15 625 24 130 14 329 54 475 95 122 35 430 166 480
205 19 15 18 15 -20 16 -22 0 -78 3 -125 5 -579 33 -1045 48 -1084 35z"/>
<path d="M15223 820 c-66 -14 -105 -37 -101 -63 2 -12 10 -21 17 -19 11 2 12
-14 7 -85 -15 -179 -15 -178 18 -181 65 -8 100 26 61 58 -18 15 -20 77 -4 167
l11 63 67 0 c73 0 101 -16 101 -58 0 -33 -37 -52 -102 -52 -59 0 -69 -8 -48
-40 27 -43 184 12 214 74 47 101 -72 169 -241 136z"/>
<path d="M15568 819 c-15 -8 -16 -21 -12 -92 4 -54 1 -105 -9 -152 -20 -90
-11 -110 45 -102 22 3 42 8 45 11 4 3 1 23 -5 45 -19 63 -12 191 10 191 25 0
198 -190 198 -218 0 -11 45 -32 69 -32 10 0 24 6 30 14 11 13 21 132 25 281 1
60 1 60 -29 63 -16 2 -39 -4 -50 -12 -18 -13 -18 -16 -5 -41 16 -30 18 -171 3
-186 -6 -6 -22 9 -43 37 -38 54 -119 135 -174 175 -41 30 -69 35 -98 18z"/>
<path d="M16201 808 c-164 -63 -202 -243 -66 -316 47 -25 178 -22 232 6 55 29
83 60 83 92 0 19 7 30 25 38 15 7 25 20 25 32 0 19 -6 20 -113 20 -111 0 -137
-7 -137 -36 0 -6 23 -14 52 -17 121 -15 94 -87 -32 -87 -109 0 -166 56 -140
135 25 75 120 110 226 85 51 -12 56 -12 75 6 17 18 18 21 3 42 -14 20 -23 22
-97 21 -58 0 -98 -6 -136 -21z"/>
<path d="M13145 813 c-60 -4 -95 -22 -95 -50 0 -11 20 -13 113 -7 l114 7 6
-24 c4 -13 7 -55 7 -92 0 -62 -3 -71 -29 -98 -23 -22 -39 -29 -70 -29 -64 0
-91 15 -91 49 0 16 5 33 10 36 13 8 3 25 -15 25 -7 0 -27 -12 -44 -26 -65 -54
-29 -129 66 -141 109 -12 182 18 220 91 21 39 36 247 19 258 -11 8 -95 8 -211
1z"/>
<path d="M13555 813 c-11 -2 -39 -11 -62 -19 -35 -13 -43 -20 -43 -40 0 -16 6
-24 16 -24 15 0 16 -10 11 -82 -4 -46 -10 -104 -13 -130 -6 -45 -5 -47 20 -54
59 -14 104 19 72 55 -9 10 -16 34 -16 57 1 68 18 167 32 175 22 14 88 10 124
-7 72 -34 23 -109 -66 -103 -44 4 -64 -9 -54 -34 9 -23 87 -22 140 2 112 51
114 170 3 201 -34 10 -125 12 -164 3z"/>
<path d="M14013 799 c-94 -36 -165 -142 -148 -220 11 -48 51 -87 111 -106 48
-15 64 -15 126 -5 95 17 152 54 156 103 2 26 9 39 26 47 13 6 26 20 29 31 6
24 10 23 -138 21 -49 -1 -95 -6 -102 -12 -22 -18 -15 -38 15 -38 43 0 99 -19
106 -35 3 -8 -4 -24 -16 -35 -32 -29 -136 -28 -189 2 -118 66 -29 217 121 205
30 -3 67 -8 82 -12 19 -5 31 -2 47 14 24 24 19 47 -12 55 -48 13 -163 5 -214
-15z"/>
<path d="M11385 804 c-68 -15 -106 -29 -120 -45 -19 -20 -13 -39 12 -39 14 0
15 -11 8 -82 -4 -46 -8 -105 -9 -133 -1 -49 -1 -50 31 -53 38 -4 73 13 73 33
0 8 -4 15 -9 15 -21 0 -28 57 -17 142 7 48 15 90 18 93 3 3 31 6 62 6 71 1
109 -20 104 -59 -4 -35 -39 -52 -105 -52 -46 0 -53 -3 -53 -20 0 -55 134 -38
197 25 96 96 -26 203 -192 169z"/>
<path d="M11780 798 c-47 -13 -98 -53 -106 -83 -15 -60 18 -85 147 -112 91
-20 120 -43 85 -68 -35 -26 -102 -29 -169 -7 -71 23 -89 20 -85 -17 9 -79 245
-80 312 0 18 21 26 42 26 70 0 47 -22 61 -120 79 -82 15 -133 36 -128 52 12
36 80 44 194 22 34 -6 67 16 58 41 -13 32 -135 46 -214 23z"/>
<path d="M9622 779 c-46 -23 -115 -95 -140 -146 -9 -18 -23 -33 -32 -33 -9 0
-25 -9 -35 -20 -17 -19 -17 -21 -2 -38 13 -15 15 -25 7 -53 -14 -48 -14 -49
21 -49 48 0 72 17 65 46 -4 13 -2 33 4 44 9 17 21 19 103 17 l92 -2 23 -47
c25 -51 51 -65 97 -54 39 10 41 32 8 64 -46 42 -63 85 -72 181 -4 48 -11 93
-15 100 -11 18 -77 13 -124 -10z m66 -111 l3 -58 -76 0 c-41 0 -75 3 -75 6 0
4 10 22 21 41 25 41 75 75 104 71 17 -3 20 -12 23 -60z"/>
<path d="M9937 787 c-17 -12 -17 -14 -1 -46 17 -34 17 -57 -2 -228 -8 -71 0
-80 62 -69 35 7 56 32 36 45 -27 17 -32 61 -16 162 19 119 12 149 -34 149 -15
0 -36 -6 -45 -13z"/>
<path d="M10900 793 c-34 -12 -54 -63 -26 -63 20 0 23 -41 10 -130 -19 -130
-1 -150 136 -150 128 0 190 23 174 65 -5 12 -13 15 -33 10 -44 -11 -149 -18
-175 -11 -30 7 -50 39 -41 66 6 18 16 20 90 20 64 0 87 4 100 16 30 30 12 39
-84 42 -91 3 -93 3 -87 25 3 12 6 30 6 40 0 15 11 17 98 17 83 0 102 3 115 18
35 38 23 42 -125 41 -79 0 -150 -3 -158 -6z"/>
<path d="M7549 780 c-25 -4 -60 -15 -77 -24 -35 -18 -43 -50 -16 -60 15 -6 16
-18 9 -94 -14 -170 -14 -167 22 -170 58 -6 93 29 58 58 -18 15 -20 77 -4 167
10 58 13 63 38 64 94 4 141 -15 141 -55 0 -33 -37 -54 -101 -58 -48 -3 -54 -5
-51 -23 6 -29 22 -36 65 -30 129 19 206 129 134 191 -47 41 -115 51 -218 34z"/>
<path d="M7931 774 c-30 -8 -61 -19 -68 -25 -20 -17 -16 -46 8 -52 20 -5 21
-10 15 -64 -3 -32 -9 -86 -12 -119 l-7 -62 38 -12 c50 -17 167 -7 225 18 64
27 117 89 125 146 4 25 4 58 1 72 -10 39 -66 90 -111 103 -54 15 -149 13 -214
-5z m174 -54 c47 -11 95 -59 95 -96 0 -73 -72 -124 -181 -127 -85 -3 -85 -4
-63 172 5 40 11 51 28 54 38 8 80 7 121 -3z"/>
<path d="M8379 783 c-16 -2 -31 -14 -38 -29 -14 -32 -14 -34 4 -34 19 0 20
-88 3 -191 -13 -82 -7 -93 48 -92 51 1 62 16 41 52 -9 16 -17 43 -17 60 l0 31
78 0 c82 0 126 17 120 47 -2 13 -19 16 -97 14 l-94 -2 7 32 c3 17 6 38 6 45 0
11 22 14 99 14 91 0 101 2 115 22 8 12 13 25 10 30 -5 8 -234 9 -285 1z"/>
<path d="M5505 773 c-69 -16 -96 -25 -110 -39 -20 -20 -19 -44 2 -44 14 0 15
-10 8 -97 -10 -127 -9 -143 5 -157 6 -6 48 -13 93 -14 65 -3 94 1 137 17 184
69 200 282 25 330 -40 11 -122 13 -160 4z m161 -78 c67 -28 79 -117 22 -166
-44 -39 -180 -63 -206 -37 -18 18 -11 129 13 206 6 17 127 16 171 -3z"/>
<path d="M5852 769 c-17 -6 -22 -15 -20 -31 3 -20 10 -23 48 -25 37 -1 50 -7
77 -37 48 -52 51 -79 16 -129 -39 -57 -76 -74 -109 -53 -45 30 -91 -17 -54
-54 42 -42 126 -17 185 53 l38 45 31 -46 c35 -52 88 -78 142 -67 35 6 69 38
59 54 -3 6 -28 11 -55 11 -42 0 -52 4 -74 31 -15 17 -33 44 -41 60 -14 26 -13
30 18 71 43 56 71 70 124 63 36 -5 43 -3 53 15 9 16 8 25 -1 36 -30 36 -146
-3 -198 -67 l-33 -39 -28 43 c-41 65 -114 92 -178 66z"/>
<path d="M6373 769 c-39 -11 -54 -46 -28 -65 18 -14 18 -42 -1 -215 -6 -54 -5
-57 19 -63 30 -7 87 11 87 29 0 7 -7 18 -15 25 -9 7 -15 29 -15 51 l0 39 83 0
c69 0 87 3 100 18 33 36 22 42 -78 42 -103 0 -101 -1 -89 59 l7 31 96 0 c100
0 121 7 121 42 0 16 -11 18 -127 17 -71 0 -142 -5 -160 -10z"/>
<path d="M3395 761 c-99 -17 -171 -95 -137 -148 11 -17 74 -42 135 -53 74 -14
108 -30 105 -49 -8 -40 -108 -53 -191 -25 -56 19 -77 14 -77 -20 0 -36 51 -56
142 -56 115 1 198 50 200 120 1 43 -26 65 -100 80 -104 22 -137 34 -140 54 -2
10 2 22 10 27 18 12 115 11 158 -1 26 -7 39 -6 57 5 13 9 23 20 23 25 0 31
-107 54 -185 41z"/>
<path d="M3981 759 c-18 -7 -22 -14 -17 -32 20 -66 18 -97 -7 -149 -31 -62
-81 -101 -124 -96 -27 3 -28 6 -35 66 -9 82 -22 121 -59 171 -25 36 -34 41
-68 41 -23 0 -44 -6 -52 -16 -12 -14 -8 -20 25 -47 47 -37 83 -114 95 -201 5
-36 12 -70 16 -76 10 -17 93 -11 134 9 80 41 153 154 166 257 6 40 4 54 -10
67 -18 19 -29 20 -64 6z"/>
<path d="M4305 756 c-117 -37 -175 -105 -175 -204 0 -83 51 -127 158 -138 114
-12 233 45 236 114 0 18 6 32 12 32 20 0 49 39 37 51 -17 17 -231 8 -243 -11
-16 -25 -12 -28 43 -35 61 -9 87 -20 87 -40 0 -49 -147 -67 -212 -27 -40 25
-48 39 -48 83 0 43 26 86 63 106 35 18 114 22 188 9 43 -8 48 -6 59 15 11 20
10 25 -10 41 -27 22 -132 24 -195 4z"/>
<path d="M14607 603 c-4 -3 -7 -15 -7 -25 0 -16 10 -18 100 -18 88 0 100 2
110 19 5 11 10 22 10 25 0 8 -205 7 -213 -1z"/>
<path d="M12537 593 c-4 -3 -7 -16 -7 -27 0 -20 4 -21 92 -18 111 4 118 6 118
32 0 19 -6 20 -98 20 -54 0 -102 -3 -105 -7z"/>
<path d="M10357 583 c-4 -3 -7 -16 -7 -28 0 -22 2 -22 98 -17 54 3 100 10 104
16 21 31 8 36 -90 36 -54 0 -102 -3 -105 -7z"/>
<path d="M8924 565 c-13 -33 1 -38 96 -36 74 1 98 5 107 18 7 9 10 20 7 24 -3
5 -50 9 -105 9 -78 0 -101 -3 -105 -15z"/>
<path d="M6927 563 c-4 -3 -7 -15 -7 -25 0 -16 10 -18 100 -18 87 0 101 2 109
19 6 10 7 21 4 25 -8 8 -198 8 -206 -1z"/>
<path d="M4866 544 c-12 -31 -4 -34 94 -34 88 0 100 2 110 19 5 11 10 22 10
25 0 3 -47 6 -104 6 -85 0 -105 -3 -110 -16z"/>
</g>
</svg>
