<?xml version="1.0" standalone="no"?>
<!DOCTYPE svg PUBLIC "-//W3C//DTD SVG 20010904//EN"
 "http://www.w3.org/TR/2001/REC-SVG-20010904/DTD/svg10.dtd">
<svg version="1.0" xmlns="http://www.w3.org/2000/svg"
 width="251.000000pt" height="201.000000pt" viewBox="0 0 251.000000 201.000000"
 preserveAspectRatio="xMidYMid meet">

<g transform="translate(0.000000,201.000000) scale(0.100000,-0.100000)"
fill="#000000" stroke="none">
<path d="M84 1855 l1 -70 124 0 c93 0 125 3 127 13 1 7 0 8 -3 2 -3 -6 -52
-10 -123 -10 l-119 0 -4 68 -3 67 0 -70z"/>
<path d="M2162 1858 l3 -73 128 -3 127 -3 -2 78 -2 78 -3 -72 -4 -73 -120 0
-121 0 4 70 c2 39 -1 70 -5 70 -4 0 -7 -33 -5 -72z"/>
<path d="M117 1914 c-12 -12 -8 -41 8 -54 8 -7 15 -19 15 -27 0 -13 -3 -13
-15 -3 -11 9 -15 9 -15 1 0 -17 29 -26 42 -13 12 12 8 24 -19 61 -17 23 -17
24 6 16 17 -5 22 -4 19 6 -5 16 -30 23 -41 13z"/>
<path d="M194 1872 c5 -84 26 -87 32 -5 3 42 2 44 -5 13 l-7 -35 -8 30 c-13
52 -16 52 -12 -3z"/>
<path d="M270 1895 c-18 -48 -9 -85 21 -85 14 0 19 7 19 30 0 17 -4 30 -9 30
-4 0 -6 -11 -3 -25 2 -15 0 -25 -7 -25 -6 0 -11 17 -11 40 0 39 12 53 24 28 3
-7 5 -4 3 6 -3 30 -26 31 -37 1z"/>
<path d="M2210 1871 c0 -22 -3 -48 -7 -58 -6 -16 -5 -16 10 -4 19 15 25 101 7
101 -5 0 -10 -18 -10 -39z"/>
<path d="M2261 1853 c1 -32 4 -48 6 -35 2 12 13 27 24 33 27 14 21 53 -8 57
-22 3 -23 0 -22 -55z m25 10 c-11 -11 -19 6 -11 24 8 17 8 17 12 0 3 -10 2
-21 -1 -24z"/>
<path d="M2342 1858 c2 -39 7 -53 18 -53 9 0 16 11 18 28 2 15 -1 27 -6 27 -6
0 -8 -9 -5 -20 3 -11 0 -20 -6 -20 -6 0 -11 17 -11 40 0 22 5 40 10 40 6 0 10
-4 10 -10 0 -5 4 -10 10 -10 5 0 7 7 4 15 -4 8 -15 15 -26 15 -17 0 -19 -6
-16 -52z"/>
<path d="M340 1662 l5 -67 3 59 c2 32 -1 63 -5 67 -4 4 -6 -22 -3 -59z"/>
<path d="M2164 1655 l1 -70 125 0 125 0 1 75 1 75 -4 -72 -4 -73 -119 0 -119
0 -4 68 -3 67 0 -70z"/>
<path d="M120 1660 c0 -46 2 -50 23 -49 16 1 18 2 5 6 -10 2 -18 9 -18 15 0 6
8 17 18 24 16 13 16 13 0 14 -10 0 -18 6 -18 14 0 8 8 17 18 19 13 4 11 5 -5
6 -21 1 -23 -3 -23 -49z"/>
<path d="M190 1661 c0 -28 5 -51 10 -51 6 0 10 9 10 19 0 10 7 22 16 25 24 9
14 50 -13 54 -21 3 -23 0 -23 -47z m32 7 c-9 -9 -12 -7 -12 12 0 19 3 21 12
12 9 -9 9 -15 0 -24z"/>
<path d="M270 1691 c0 -10 7 -24 15 -31 16 -14 20 -40 6 -40 -5 0 -12 6 -14
13 -4 7 -6 6 -6 -4 -1 -23 25 -31 40 -13 10 12 8 21 -10 45 -13 17 -20 33 -16
37 3 4 10 0 15 -8 8 -13 10 -12 10 3 0 10 -8 17 -20 17 -13 0 -20 -7 -20 -19z"/>
<path d="M2191 1653 c1 -32 4 -46 6 -30 2 15 11 27 19 27 9 0 14 11 14 30 0
23 -4 30 -20 30 -18 0 -20 -6 -19 -57z m29 22 c0 -8 -4 -15 -10 -15 -5 0 -10
7 -10 15 0 8 5 15 10 15 6 0 10 -7 10 -15z"/>
<path d="M2270 1653 c0 -68 5 -66 14 5 4 33 3 52 -4 52 -6 0 -10 -24 -10 -57z"/>
<path d="M2296 1679 c-7 -36 2 -81 15 -73 12 7 12 104 0 104 -5 0 -11 -14 -15
-31z"/>
<path d="M2357 1703 c-4 -3 -7 -26 -7 -50 0 -46 23 -70 41 -42 13 21 11 49 -5
49 -9 0 -12 -8 -8 -26 3 -19 1 -25 -7 -20 -13 9 -15 72 -2 80 5 4 11 0 14 -6
2 -7 8 -10 12 -6 4 4 4 11 0 17 -7 12 -28 14 -38 4z"/>
<path d="M99 1587 c4 -4 61 -6 127 -5 l119 3 -127 5 c-70 3 -124 1 -119 -3z"/>
<path d="M368 1277 c-60 -5 -108 -14 -108 -19 0 -5 -9 -6 -20 -3 -12 4 -20 2
-20 -5 0 -8 -11 -11 -30 -8 -17 3 -30 2 -30 -2 0 -23 35 -108 51 -121 18 -16
17 -17 -12 -29 -83 -35 -80 -200 6 -256 41 -27 155 -7 216 38 13 9 29 8 75 -6
33 -10 86 -27 119 -37 33 -10 76 -20 95 -23 19 -3 112 -23 205 -45 144 -35
187 -41 280 -41 l110 0 25 -47 c14 -26 37 -55 51 -65 60 -45 171 -40 229 9
l30 25 0 -35 0 -35 88 -20 c198 -46 211 -47 224 -30 8 11 46 22 105 32 163 28
247 67 277 130 9 20 21 36 26 36 6 0 10 24 10 54 0 43 -4 56 -17 60 -21 6
-193 36 -208 36 -6 0 -19 -16 -30 -35 -13 -26 -24 -35 -39 -33 -19 3 -21 9
-18 58 2 53 2 54 -12 30 -14 -22 -15 -23 -16 -5 0 17 -2 17 -10 5 -8 -13 -10
-12 -11 5 -1 14 -4 10 -9 -10 -7 -28 -8 -28 -9 -5 -3 63 -82 130 -152 130 -53
0 -29 7 48 14 68 6 73 5 104 -21 17 -15 38 -41 45 -58 7 -16 13 -24 14 -16 0
25 -41 81 -73 98 -44 23 -114 22 -157 -1 -19 -10 -55 -22 -80 -26 l-45 -7 43
-2 c34 -1 42 -5 42 -19 0 -14 44 -45 156 -111 143 -83 159 -90 174 -76 22 20
57 21 41 1 -9 -11 -6 -12 15 -8 24 4 25 3 15 -16 -6 -11 -11 -27 -10 -34 0 -7
5 -1 11 14 l10 28 76 -7 c42 -3 78 -7 80 -8 2 -1 -20 -27 -48 -58 -56 -61
-101 -81 -252 -112 -90 -18 -88 -17 -88 -7 0 4 30 13 66 19 73 13 109 33 58
33 -17 0 -52 -6 -77 -14 -26 -8 -49 -10 -52 -5 -3 4 11 13 32 19 41 11 85 35
48 26 -55 -13 -81 -15 -94 -7 -11 7 -4 11 25 16 59 10 66 16 9 8 -65 -8 -110
-7 -160 4 l-40 9 68 22 c46 15 78 19 100 14 l32 -7 -40 -6 -40 -7 48 1 c26 1
47 -2 47 -7 0 -5 3 -6 6 -3 4 4 24 -7 44 -23 40 -31 85 -39 121 -20 27 15 24
24 -20 48 -44 25 -71 28 -91 10 -12 -11 -12 -10 -1 4 15 20 22 15 -184 128
-153 84 -179 100 -157 100 7 0 12 5 12 10 0 6 -20 11 -47 10 -27 0 -68 4 -93
9 -85 20 -405 50 -515 49 -60 0 -105 -2 -100 -4 6 -1 22 -5 36 -8 22 -5 25
-10 21 -35 l-4 -30 53 15 c30 7 61 13 69 13 16 -1 -45 -22 -98 -33 -29 -7 -32
-5 -32 17 0 21 -6 25 -40 31 -23 4 -38 11 -35 16 3 6 2 10 -3 10 -18 0 -21
-13 -6 -27 13 -14 13 -18 -5 -37 -12 -12 -21 -32 -21 -44 0 -26 0 -26 -98 -6
-71 14 -218 72 -208 81 2 3 26 -5 51 -16 57 -25 52 -25 58 -1 3 13 26 29 58
44 l52 23 -169 12 c-93 7 -171 15 -173 17 -15 15 37 18 236 16 124 -1 234 -7
244 -12 10 -6 41 -10 69 -10 47 0 51 2 45 20 -9 29 19 26 42 -5 17 -24 23 -25
113 -25 52 0 119 1 148 2 l52 2 -52 53 c-51 52 -54 53 -110 53 -58 0 -163 -18
-155 -27 3 -2 51 1 107 7 92 11 103 11 121 -5 22 -21 17 -34 -6 -15 -15 13
-90 11 -240 -5 -43 -4 -46 -4 -23 6 23 9 26 14 18 28 -5 10 -7 21 -3 24 7 8
-5 57 -15 57 -23 -1 -35 -22 -35 -66 l-1 -49 -41 -6 c-40 -7 -208 -1 -234 7
-9 3 -11 13 -7 29 6 23 4 25 -21 20 -16 -3 1 6 37 19 106 39 123 46 118 51 -2
3 -36 9 -76 15 -63 9 -76 7 -118 -10 -26 -11 -49 -18 -52 -15 -3 3 0 5 5 5 8
0 8 9 0 30 -7 19 -14 25 -19 17 -5 -8 -9 -7 -13 5 -7 19 -69 20 -237 5z m-54
-36 c3 -4 -6 -6 -19 -3 -14 2 -25 6 -25 8 0 8 39 4 44 -5z m157 -28 c13 -16
12 -17 -3 -4 -10 7 -18 15 -18 17 0 8 8 3 21 -13z m-14 -90 c-5 -7 -5 -18 -1
-24 12 -20 -52 -3 -86 23 -17 12 -30 30 -30 39 0 15 10 19 58 21 54 3 57 2 63
-22 3 -14 1 -30 -4 -37z m43 52 c0 -8 5 -15 12 -15 6 0 8 -3 5 -6 -8 -8 -37
14 -37 27 0 5 5 9 10 9 6 0 10 -7 10 -15z m824 -94 c18 -19 18 -21 2 -27 -23
-9 -128 13 -138 29 -5 7 -1 13 9 15 8 2 19 -2 24 -10 7 -10 9 -8 9 6 0 16 5
18 37 13 20 -4 46 -15 57 -26z m56 -6 c13 -14 21 -25 18 -25 -2 0 -15 11 -28
25 -13 14 -21 25 -18 25 2 0 15 -11 28 -25z m-1041 1 c10 -7 12 -5 6 3 -5 9 0
12 16 9 36 -5 69 -62 69 -118 0 -35 -4 -47 -15 -47 -10 0 -15 11 -16 31 -2 27
-2 28 -6 6 -8 -49 -16 -56 -23 -20 l-6 35 -11 -35 -11 -35 -2 30 c-1 27 -3 25
-16 -17 -8 -27 -16 -48 -18 -48 -2 0 -1 22 2 49 5 61 -12 115 -45 141 -23 18
-24 20 -6 17 12 -2 29 -9 38 -17 16 -14 17 -13 11 7 -7 22 6 26 33 9z m-85
-90 c20 -42 20 -56 0 -84 -32 -46 -84 -11 -84 58 0 67 56 85 84 26z m1644 -59
c12 -11 22 -28 22 -36 -1 -12 -3 -11 -12 4 -16 29 -39 45 -66 45 -13 0 -21 4
-17 10 9 14 45 3 73 -23z m-285 -13 c-4 -10 -9 -12 -15 -6 -12 12 -1 35 12 27
5 -3 6 -13 3 -21z m-303 -11 c3 -2 -29 -3 -70 -1 -41 2 -86 0 -100 -4 -19 -6
-18 -4 5 7 22 11 48 13 95 9 36 -4 67 -8 70 -11z m209 3 c5 -4 12 -2 16 3 8
14 44 5 67 -16 33 -30 58 -89 58 -138 0 -25 -4 -45 -10 -45 -5 0 -10 8 -11 18
0 14 -2 14 -9 -3 -7 -17 -9 -16 -11 10 l-2 30 -7 -35 -7 -35 -3 35 c-2 34 -2
34 -14 -15 l-12 -50 -5 72 c-6 97 -48 153 -130 174 -29 7 -26 8 18 4 29 -2 57
-6 62 -9z m182 -26 c-24 -20 -61 -27 -61 -12 0 12 40 31 65 31 19 0 19 -1 -4
-19z m-681 -15 c10 -12 10 -15 -4 -15 -9 0 -16 -4 -16 -10 0 -5 7 -7 15 -4 8
4 15 1 15 -5 0 -6 -9 -11 -20 -11 -13 0 -20 7 -20 20 0 11 6 20 13 20 8 0 7 4
-3 10 -8 5 -10 10 -4 10 6 0 17 -7 24 -15z m185 4 c-55 -4 -115 -9 -132 -11
-35 -4 -46 7 -15 15 9 3 69 5 132 4 l115 0 -100 -8z m645 -36 c2 -2 -2 -8 -10
-13 -9 -6 -19 -5 -24 0 -6 6 -21 10 -35 11 l-26 1 25 8 c23 7 58 4 70 -7z
m-366 -24 c35 -41 36 -100 1 -134 -13 -14 -33 -25 -44 -25 -65 0 -107 116 -61
165 33 35 72 33 104 -6z m-461 -6 c-7 -2 -19 -2 -25 0 -7 3 -2 5 12 5 14 0 19
-2 13 -5z"/>
<path d="M197 1004 c-13 -14 -7 -83 9 -99 21 -20 37 -15 48 17 15 43 -30 108
-57 82z"/>
<path d="M1395 810 c-13 -15 -16 -30 -13 -65 7 -55 22 -75 58 -75 53 0 76 60
45 119 -23 45 -61 54 -90 21z"/>
<path d="M685 1249 c-22 -10 -29 -16 -16 -13 37 10 88 33 71 33 -8 0 -33 -9
-55 -20z"/>
<path d="M975 1260 c-18 -7 -19 -8 -3 -15 10 -4 15 -11 12 -16 -3 -5 11 -9 31
-9 29 0 36 3 31 15 -3 9 0 15 9 15 8 0 15 5 15 10 0 12 -66 12 -95 0z"/>
<path d="M793 1253 c9 -2 23 -2 30 0 6 3 -1 5 -18 5 -16 0 -22 -2 -12 -5z"/>
<path d="M860 1243 c8 -2 24 -8 35 -13 11 -5 31 -11 45 -13 26 -4 22 -7 -27
-23 -17 -5 -17 -6 0 -15 9 -6 17 -16 17 -24 0 -28 79 -50 81 -22 4 73 4 77
-13 77 -9 0 -20 5 -23 10 -3 6 -21 10 -40 10 -19 0 -37 5 -40 10 -3 6 -16 10
-28 9 -14 0 -16 -2 -7 -6z"/>
<path d="M1438 1043 c7 -3 16 -2 19 1 4 3 -2 6 -13 5 -11 0 -14 -3 -6 -6z"/>
<path d="M1483 1033 c9 -2 23 -2 30 0 6 3 -1 5 -18 5 -16 0 -22 -2 -12 -5z"/>
<path d="M1538 1023 c6 -2 18 -2 25 0 6 3 1 5 -13 5 -14 0 -19 -2 -12 -5z"/>
<path d="M1598 1013 c7 -3 16 -2 19 1 4 3 -2 6 -13 5 -11 0 -14 -3 -6 -6z"/>
<path d="M1648 1003 c6 -2 18 -2 25 0 6 3 1 5 -13 5 -14 0 -19 -2 -12 -5z"/>
<path d="M2221 704 c0 -11 3 -14 6 -6 3 7 2 16 -1 19 -3 4 -6 -2 -5 -13z"/>
</g>
</svg>
